<?xml version="1.0" standalone="no"?>
<!DOCTYPE svg PUBLIC "-//W3C//DTD SVG 20010904//EN"
 "http://www.w3.org/TR/2001/REC-SVG-20010904/DTD/svg10.dtd">
<svg version="1.0" xmlns="http://www.w3.org/2000/svg"
 width="942.000000pt" height="771.000000pt" viewBox="0 0 942.000000 771.000000"
 preserveAspectRatio="xMidYMid meet">

<g transform="translate(0.000000,771.000000) scale(0.100000,-0.100000)"
fill="#000000" stroke="none">
<path d="M2 7488 c1 -163 3 -199 8 -133 3 50 8 79 9 65 3 -18 5 -20 8 -7 3 11
15 17 36 18 18 0 41 3 52 5 83 19 135 22 168 9 9 -4 17 -3 17 3 0 6 15 8 38 5
20 -4 57 -6 82 -6 25 1 48 -4 52 -11 4 -6 8 -6 8 -1 0 17 110 17 126 0 12 -11
20 -12 35 -5 10 6 19 7 19 3 0 -4 5 -1 10 7 8 12 10 12 10 1 0 -11 12 -12 63
-6 34 4 69 7 77 6 31 -2 319 -10 422 -12 58 0 111 2 116 5 6 3 13 0 15 -6 4
-10 8 -9 16 2 6 8 11 11 11 6 0 -5 6 -4 13 3 10 8 16 8 24 0 8 -8 20 -8 40 -2
23 8 32 6 47 -9 13 -12 22 -14 26 -8 4 7 40 11 86 10 43 0 132 1 196 2 64 2
114 0 112 -4 -3 -4 7 -3 22 2 20 8 29 8 35 -1 4 -7 12 -8 20 -3 16 10 226 12
255 2 12 -4 24 -4 27 -1 3 3 59 6 124 7 65 1 125 6 132 11 10 5 12 4 7 -3 -8
-14 9 -15 39 -3 11 5 28 3 39 -3 14 -8 20 -8 23 2 5 13 33 17 33 5 0 -5 60 -9
133 -9 133 -2 298 -10 372 -19 22 -3 92 -8 155 -11 113 -5 205 -11 205 -13 0
-1 54 -4 120 -7 169 -7 179 -8 191 -16 6 -4 21 -6 33 -3 11 2 21 -1 21 -7 0
-6 13 -8 35 -4 21 4 35 3 35 -3 0 -5 12 -9 28 -9 15 0 40 -5 55 -11 16 -6 44
-11 63 -11 19 0 34 -5 34 -11 0 -6 8 -8 20 -4 10 3 38 1 62 -6 45 -12 78 -18
143 -23 22 -1 43 -4 48 -6 17 -7 33 -5 39 5 5 6 8 6 8 -2 0 -8 14 -13 38 -13
28 0 33 -3 22 -10 -11 -8 -3 -9 27 -6 23 3 43 0 45 -5 4 -12 48 -21 48 -9 0 5
14 4 31 -2 16 -6 33 -8 36 -4 3 3 12 1 19 -5 12 -10 25 -12 124 -23 25 -3 59
-8 75 -11 17 -3 43 -6 59 -5 15 0 34 -5 42 -11 7 -6 18 -8 24 -4 6 4 20 -1 31
-11 10 -9 19 -12 19 -6 0 6 -6 13 -12 16 -7 3 -2 3 12 0 14 -4 28 -12 32 -18
4 -6 10 -7 14 -4 4 4 14 3 23 -1 9 -5 37 -12 64 -15 26 -4 59 -11 74 -17 14
-5 33 -7 41 -4 8 3 20 1 26 -3 11 -9 76 -20 161 -29 22 -2 76 -12 121 -23 44
-10 104 -22 133 -26 28 -4 54 -10 57 -15 2 -4 11 -6 19 -3 8 3 20 2 27 -2 7
-5 19 -9 27 -11 7 -1 34 -7 60 -13 88 -21 96 -22 120 -21 12 1 28 -2 34 -6 6
-3 27 -7 47 -8 20 -1 42 -5 48 -9 7 -4 12 -2 12 6 0 9 2 10 8 1 4 -6 27 -12
52 -14 25 -1 50 -6 55 -9 18 -13 91 -27 120 -24 16 2 33 0 39 -3 6 -4 47 -8
91 -9 44 -1 102 -5 128 -8 52 -7 186 -9 392 -6 141 2 246 -9 395 -42 52 -11
102 -21 110 -23 8 -1 31 -5 50 -10 40 -9 75 -14 140 -21 25 -2 67 -8 93 -14
27 -5 77 -12 112 -15 35 -3 94 -12 131 -21 38 -8 95 -18 129 -20 64 -5 76 -7
115 -18 14 -3 41 -9 60 -11 19 -3 46 -8 60 -10 43 -10 270 -12 270 -3 0 4 8 8
18 8 15 0 15 -2 -4 -18 -11 -9 -38 -39 -59 -65 -21 -27 -61 -63 -89 -82 -28
-19 -85 -66 -126 -104 -41 -39 -98 -82 -126 -95 -29 -14 -80 -49 -113 -80 -62
-55 -150 -106 -182 -106 -10 0 -38 -9 -62 -19 -25 -11 -60 -22 -77 -25 -18 -2
-34 -7 -38 -10 -3 -3 -11 -1 -19 5 -9 8 -17 8 -26 1 -7 -6 -64 -25 -127 -42
-71 -20 -157 -54 -225 -88 l-110 -56 -115 2 c-98 3 -123 0 -160 -17 -25 -11
-62 -21 -82 -21 -49 0 -292 -98 -354 -143 -43 -31 -58 -36 -129 -41 -44 -3
-97 -5 -117 -6 -20 0 -72 -9 -115 -21 -67 -19 -94 -21 -193 -16 -109 6 -115 5
-138 -16 -21 -20 -35 -22 -150 -25 -70 -1 -139 -2 -154 -3 -53 -1 -36 -15 20
-17 31 -1 136 -5 234 -8 130 -4 212 -2 315 10 76 9 179 18 228 22 50 3 122 10
160 16 103 16 345 21 345 7 0 -6 -6 -9 -13 -6 -7 3 -23 -6 -36 -19 -13 -13
-27 -21 -32 -18 -5 3 -9 -2 -9 -10 0 -9 -3 -15 -7 -14 -13 3 -63 -25 -63 -35
0 -5 -6 -4 -14 2 -12 10 -15 8 -18 -11 -2 -13 -9 -22 -17 -20 -8 2 -18 -3 -22
-10 -7 -10 -9 -10 -9 1 0 11 -3 11 -15 1 -12 -10 -15 -10 -16 1 0 8 -4 4 -10
-9 -7 -18 -14 -22 -29 -17 -12 4 -20 2 -20 -4 0 -7 -12 -9 -30 -6 -20 4 -30 1
-31 -7 0 -7 -4 -5 -8 6 -6 17 -9 16 -24 -8 -10 -15 -22 -24 -27 -21 -6 4 -10
0 -10 -7 -1 -7 -7 -2 -14 11 -12 21 -14 21 -20 6 -6 -17 -7 -17 -19 0 -12 16
-15 16 -30 1 -13 -13 -17 -14 -24 -3 -10 18 -70 30 -79 16 -4 -7 -10 -7 -18 0
-9 7 -16 7 -24 -1 -9 -9 -12 -7 -12 8 0 12 -3 15 -8 7 -11 -18 -80 -27 -97
-13 -11 9 -15 9 -15 1 0 -7 -4 -10 -9 -6 -5 3 -17 -2 -25 -11 -13 -13 -20 -14
-31 -4 -11 9 -15 10 -15 1 0 -7 -5 -9 -11 -5 -6 3 -15 0 -20 -7 -7 -12 -9 -11
-10 1 0 10 -3 8 -8 -5 -5 -11 -12 -20 -17 -20 -5 0 -15 -4 -21 -8 -9 -5 -13
-2 -14 10 0 10 -3 13 -6 6 -6 -16 -33 -17 -33 -1 0 6 -9 1 -19 -11 -10 -12
-25 -20 -32 -19 -7 2 -16 -8 -20 -22 -4 -14 -7 -19 -8 -11 -1 10 -4 11 -15 2
-11 -10 -15 -8 -19 6 -4 14 -5 13 -6 -4 -1 -27 -21 -31 -22 -5 -1 11 -4 8 -9
-8 -6 -22 -8 -23 -15 -7 -6 15 -10 16 -16 5 -7 -10 -9 -8 -9 7 -1 20 -1 20
-15 1 -15 -20 -15 -20 -15 0 -1 14 -4 11 -14 -11 l-13 -30 -9 30 -8 30 -7 -25
-7 -25 -1 25 c-1 18 -4 21 -10 11 -5 -7 -14 -10 -20 -7 -7 5 -11 -2 -12 -16
-1 -17 -3 -18 -6 -5 -6 25 -23 21 -24 -5 -1 -19 -3 -17 -9 7 -6 24 -8 26 -9 8
-1 -25 -21 -32 -21 -8 0 8 -4 15 -10 15 -5 0 -13 0 -17 1 -5 0 -11 -10 -15
-23 -6 -21 -6 -21 -7 5 -1 17 -5 26 -12 22 -5 -4 -18 0 -27 8 -16 15 -33 18
-147 33 -85 10 -94 12 -105 19 -6 4 -17 1 -25 -5 -8 -6 -19 -8 -26 -5 -13 9
-144 9 -158 1 -5 -4 -12 0 -14 6 -3 8 -6 9 -6 2 -1 -6 -12 -9 -26 -6 -19 3
-25 0 -25 -13 0 -16 -2 -16 -25 -1 -13 9 -31 16 -40 16 -8 0 -15 5 -15 10 0 6
5 10 11 10 5 0 8 4 4 9 -14 24 117 81 231 100 33 6 70 12 84 15 14 2 48 7 75
11 28 3 70 11 95 16 25 6 58 11 73 11 45 2 19 13 -93 43 -115 30 -210 37 -248
17 -14 -7 -61 -22 -106 -33 -45 -11 -101 -27 -126 -35 -61 -21 -242 -112 -256
-130 -6 -7 -23 -20 -37 -27 -28 -14 -40 -13 -305 47 -40 9 -85 18 -100 21 -15
2 -47 7 -72 11 -54 8 -130 8 -270 0 -58 -4 -186 -8 -285 -11 -99 -2 -182 -5
-185 -5 -19 -4 -141 -1 -193 6 -34 4 -66 7 -70 6 -4 -1 -16 2 -26 7 -10 6 -37
11 -61 13 -43 2 -90 32 -90 57 0 6 -4 11 -10 11 -5 0 -10 -9 -10 -20 0 -17 -3
-19 -19 -11 -10 6 -21 7 -25 4 -11 -11 -79 -13 -91 -3 -6 5 -36 11 -65 14 -30
3 -102 15 -160 27 -58 11 -125 23 -150 25 -75 6 -116 14 -156 28 l-39 15 40 1
c22 1 87 0 145 -1 104 -2 143 -2 355 1 124 2 306 -6 440 -20 93 -10 137 -14
290 -27 133 -12 420 -9 500 4 164 28 358 52 460 59 61 3 121 8 135 10 14 1 59
5 100 9 41 3 93 8 115 11 95 10 127 12 246 18 69 4 139 9 155 12 16 3 40 7 54
9 26 3 199 40 238 51 12 3 22 11 22 16 0 5 4 6 10 3 13 -8 90 13 90 25 0 5 7
7 15 3 9 -3 44 1 78 8 34 7 66 12 72 10 5 -1 2 6 -7 16 -17 18 -16 19 20 21
20 1 62 7 92 11 30 5 62 9 70 9 8 0 33 3 55 7 119 19 177 27 236 30 77 4 203
16 207 20 1 1 -20 13 -48 26 -27 13 -50 27 -50 31 0 4 16 10 35 14 19 3 35 11
35 16 0 6 6 8 14 5 7 -3 18 -1 24 5 5 5 35 11 66 11 31 1 56 3 56 3 0 1 -24
20 -54 43 -48 35 -90 56 -158 78 -10 3 -18 9 -18 14 0 5 -6 9 -13 9 -8 0 -22
9 -32 20 -10 11 -29 20 -42 20 -20 0 -22 -3 -13 -19 13 -25 13 -44 0 -36 -6 3
-7 -1 -4 -9 3 -9 1 -16 -6 -16 -6 0 -8 -4 -5 -10 3 -5 -1 -10 -9 -10 -22 0
-20 26 4 50 11 11 17 20 12 20 -4 0 -13 9 -20 21 -11 17 -11 20 0 13 7 -4 -9
16 -37 44 -55 57 -53 56 -75 42 -13 -9 -13 -11 0 -20 11 -7 7 -10 -18 -10 -20
0 -31 4 -27 10 4 6 12 7 18 4 9 -5 9 -4 1 5 -9 10 -20 7 -50 -13 -59 -38 -82
-38 -154 0 -35 18 -67 31 -73 27 -6 -3 -7 -1 -4 4 4 6 -21 29 -54 53 -33 23
-71 53 -85 67 -13 13 -29 21 -35 17 -8 -4 -8 -8 0 -13 16 -10 1 -50 -23 -57
-21 -7 -36 -22 -36 -37 0 -5 5 -5 12 -1 7 4 8 3 4 -4 -4 -6 -12 -9 -19 -7 -7
2 -24 -13 -38 -34 -24 -34 -69 -61 -69 -42 0 10 47 73 62 84 9 6 6 7 -9 4 -15
-3 -20 -1 -16 9 3 8 9 14 14 14 5 0 9 5 9 11 0 5 -6 7 -12 3 -7 -4 -4 2 6 14
21 24 32 29 20 10 -4 -7 -3 -8 4 -4 7 4 12 27 12 52 0 36 -3 44 -18 44 -11 0
-24 -11 -29 -23 -8 -17 -20 -24 -41 -25 -17 0 -40 -5 -51 -11 -14 -8 -22 -8
-27 1 -4 6 -3 9 2 5 11 -6 50 20 42 29 -4 3 -19 -1 -35 -9 -15 -8 -44 -17 -63
-21 l-35 -6 32 26 c18 14 33 31 33 39 0 7 8 12 18 11 11 -1 16 5 14 18 -2 10
2 23 10 27 11 7 11 9 0 9 -8 0 -16 -9 -19 -20 -5 -19 -23 -28 -23 -12 0 5 -30
-20 -67 -56 -67 -63 -68 -63 -84 -43 -10 12 -23 21 -29 21 -17 0 -69 38 -105
75 -37 39 -99 77 -109 67 -4 -4 -6 -2 -4 4 2 5 -13 24 -33 42 -36 32 -69 42
-69 21 0 -6 8 -8 19 -4 11 3 22 1 26 -5 8 -13 13 -130 6 -130 -12 0 -32 -60
-25 -71 4 -7 3 -9 -4 -5 -6 3 -17 -1 -25 -9 -19 -18 -31 -20 -21 -2 6 9 5 9
-7 0 -23 -19 -69 -5 -69 20 0 7 8 3 16 -8 10 -11 14 -14 12 -5 -5 17 18 43 46
54 15 5 16 9 5 22 -11 13 -10 17 4 25 9 6 16 20 16 32 -1 20 -2 20 -6 2 -3
-11 -14 -26 -25 -33 -16 -12 -17 -16 -6 -30 7 -9 8 -13 2 -9 -7 4 -19 -4 -28
-18 -10 -15 -22 -22 -32 -18 -11 4 -12 9 -5 16 13 13 15 31 3 23 -4 -2 -14 0
-22 6 -13 8 -13 9 1 5 8 -3 26 2 40 10 13 8 17 12 8 10 -9 -3 -16 1 -16 9 0 8
5 13 11 11 6 -3 18 2 25 11 13 13 11 14 -14 10 -43 -9 -61 1 -36 19 20 13 19
49 -1 37 -5 -3 -7 -9 -4 -12 4 -3 -4 -17 -16 -30 -13 -14 -17 -22 -11 -18 7 4
13 4 13 -1 -1 -12 -40 -59 -40 -47 0 5 5 15 12 22 9 9 9 12 1 12 -7 0 -15 -10
-19 -22 -3 -13 -14 -32 -23 -43 -16 -19 -16 -19 12 -1 40 25 42 16 7 -24 -21
-24 -30 -29 -30 -17 0 9 -6 14 -12 12 -14 -5 -41 42 -33 56 3 4 -3 6 -12 4
-10 -1 -22 1 -28 5 -12 10 -139 12 -215 4 -50 -5 -59 -3 -100 25 -25 17 -53
31 -64 31 -19 0 -180 155 -222 213 -36 51 -109 187 -128 242 -10 28 -30 66
-45 85 -14 19 -33 49 -41 65 -20 41 -56 46 -70 10 -6 -15 -8 -31 -4 -36 3 -5
0 -9 -6 -9 -7 0 -8 -6 0 -19 15 -29 12 -39 -5 -17 -15 19 -15 19 -15 -1 0 -12
-9 -43 -21 -69 -15 -37 -22 -45 -29 -34 -9 13 -10 13 -11 0 -1 -8 -1 -19 0
-23 1 -5 -3 -6 -8 -3 -10 7 -81 -71 -81 -88 0 -6 5 -4 10 4 6 9 10 10 10 3 0
-7 -9 -17 -20 -23 -11 -6 -20 -20 -20 -30 0 -19 -10 -24 -39 -20 -18 2 -62
-40 -54 -54 3 -6 2 -8 -2 -3 -5 4 -32 -14 -59 -41 -28 -27 -75 -64 -104 -82
-46 -29 -56 -31 -76 -21 -12 7 -31 26 -41 43 -10 17 -13 28 -6 24 6 -4 11 -2
11 4 0 6 5 8 13 4 8 -5 7 -2 -2 10 -10 12 -16 14 -22 5 -5 -8 -11 -4 -19 11
-10 18 -10 21 2 15 7 -3 5 0 -5 8 -10 9 -24 23 -31 33 -12 15 -19 11 -77 -45
-42 -41 -69 -61 -81 -58 -9 3 -23 -2 -30 -12 -12 -14 -11 -15 5 -2 14 11 17
11 17 -2 0 -19 -111 -115 -167 -144 -26 -13 -28 -10 -12 19 9 17 13 18 20 7 6
-9 7 -1 3 21 -8 39 -14 52 -14 28 0 -9 -7 -18 -15 -22 -8 -3 -15 0 -15 7 0 6
-11 0 -24 -13 -13 -14 -22 -28 -20 -31 2 -4 -3 -6 -10 -5 -14 1 -116 -88 -249
-216 -32 -32 -63 -58 -67 -58 -4 0 -28 -16 -52 -36 -48 -41 -150 -101 -158
-94 -3 3 -4 10 -3 15 2 6 -4 0 -13 -12 -17 -24 -40 -32 -29 -10 4 6 0 4 -8 -6
-8 -10 -17 -14 -18 -9 -2 4 -15 2 -29 -5 -24 -12 -23 -13 21 -13 25 0 51 6 58
13 11 10 12 9 7 -1 -6 -9 -1 -12 16 -11 49 4 61 0 48 -16 -14 -17 -193 -146
-228 -164 -26 -14 -57 -7 -47 9 3 5 -5 14 -18 19 -14 6 -31 18 -38 29 -8 10
-48 39 -89 64 -139 84 -201 129 -194 140 4 6 -1 17 -11 25 -25 18 -1 17 35 -2
37 -19 38 -11 3 20 -16 13 -22 25 -15 25 19 0 14 14 -23 64 -20 25 -32 46 -26
46 5 0 19 -15 30 -34 40 -64 90 -74 143 -28 10 8 25 12 34 8 14 -5 15 -4 4 9
-15 18 -15 18 29 5 34 -10 67 2 56 20 -3 5 5 6 17 3 17 -3 19 -2 9 5 -11 8
-11 11 0 18 31 20 62 34 74 34 8 0 16 9 20 19 6 21 79 49 125 50 61 1 209 28
270 49 41 15 54 24 52 37 -2 9 1 14 6 11 6 -3 12 -3 15 1 2 5 2 2 1 -4 -4 -17
7 -16 31 4 15 12 16 14 3 10 -9 -3 -19 0 -22 9 -3 8 -12 14 -21 14 -8 0 -15 3
-15 8 0 4 -11 8 -25 10 -14 1 -36 3 -50 5 -14 1 -25 7 -25 12 0 6 -5 3 -10 -5
-7 -12 -10 -12 -10 -1 0 9 -8 11 -26 7 -15 -4 -23 -3 -20 3 3 5 -1 11 -8 14
-8 3 -17 1 -20 -6 -2 -7 -5 -4 -5 6 -1 14 -6 17 -23 12 -16 -6 -20 -4 -15 8 3
9 -1 17 -12 20 -11 3 -17 -2 -17 -14 0 -10 4 -15 8 -13 4 3 8 -2 8 -11 0 -9
-6 -15 -12 -12 -7 2 -23 0 -35 -4 -15 -6 -27 -4 -37 6 -19 20 -23 19 -29 -5
-3 -13 -10 -18 -21 -14 -9 3 -16 2 -16 -3 0 -5 -8 -9 -17 -10 -122 -9 -272
-43 -303 -68 -8 -7 -24 -16 -35 -19 -44 -14 -105 -90 -105 -130 0 -26 -17 -27
-34 -1 -15 23 -15 24 1 19 10 -4 4 3 -13 14 -18 11 -33 24 -35 29 -2 4 -22 23
-43 40 -29 24 -44 30 -56 23 -10 -5 -20 -7 -22 -4 -3 3 -17 -9 -31 -25 -18
-21 -31 -28 -46 -24 -12 3 -21 1 -21 -6 0 -8 -21 -9 -68 -5 -43 4 -76 2 -89
-4 -11 -6 -33 -14 -49 -17 -16 -3 -56 -18 -88 -35 -32 -16 -66 -30 -75 -30
-10 0 -23 -6 -30 -12 -11 -10 -13 -10 -7 0 4 6 3 12 -2 12 -5 0 -29 18 -53 40
-24 22 -49 40 -56 40 -7 0 -28 -13 -46 -30 -19 -16 -41 -30 -48 -30 -8 0 -32
-20 -53 -44 -25 -29 -49 -46 -71 -50 -18 -4 -39 -14 -46 -22 -7 -9 -24 -20
-37 -25 -32 -12 -106 24 -140 69 -40 53 -168 137 -253 167 l-39 14 0 -3264 0
-3265 3748 1 c2315 0 3738 4 3724 10 -25 9 -22 24 9 47 20 14 16 39 -9 59 -12
10 -5 18 44 49 l59 38 -40 9 c-22 5 -107 7 -190 4 -82 -3 -168 -2 -190 2 -39
8 -39 8 28 15 56 7 65 11 56 22 -13 16 -14 16 79 19 34 1 65 5 69 9 3 3 1 6
-5 6 -21 0 -13 27 9 33 18 5 19 9 9 27 -6 12 -14 19 -17 16 -3 -3 0 -13 8 -22
11 -14 9 -15 -17 -12 -16 1 -29 8 -29 15 0 16 -74 83 -91 83 -8 0 -14 -5 -14
-12 0 -9 -3 -9 -12 0 -7 7 -20 12 -30 12 -10 0 -18 6 -18 13 0 11 -51 47 -75
53 -5 1 -18 5 -27 9 -13 5 -17 0 -20 -22 l-3 -28 -25 27 c-29 31 -100 47 -100
23 0 -19 -16 -19 -24 0 -3 8 -12 12 -21 9 -9 -4 -15 -3 -13 2 3 9 -5 14 -23
14 -5 0 -7 -4 -4 -10 3 -6 -1 -7 -9 -4 -9 3 -16 13 -16 22 0 8 -3 12 -6 9 -10
-10 -44 12 -44 28 0 8 -4 15 -9 15 -13 0 -22 -43 -11 -54 6 -6 10 -15 10 -21
-1 -5 -9 0 -20 13 -10 12 -22 22 -27 21 -23 -4 -33 3 -33 22 0 16 -4 20 -17
15 -16 -5 -16 -4 1 8 22 18 12 38 -17 34 -27 -4 -36 28 -10 36 10 3 6 4 -9 2
-16 -2 -28 1 -28 5 0 5 -7 9 -15 9 -8 0 -15 -7 -15 -16 0 -8 4 -13 9 -10 15
10 -1 -89 -17 -102 -10 -7 -11 -12 -4 -12 7 0 12 -4 12 -10 0 -5 -7 -6 -17 -3
-12 5 -14 3 -8 -7 5 -8 3 -11 -6 -8 -8 3 -13 11 -11 18 2 7 -5 9 -20 5 -15 -4
-18 -3 -10 3 10 6 7 15 -12 35 -14 15 -23 27 -20 27 2 0 -3 14 -11 30 -13 25
-19 29 -35 20 -24 -13 -30 -13 -30 0 0 6 6 10 13 10 16 0 20 70 4 89 -9 11 -9
15 1 18 6 3 9 10 5 16 -12 19 -12 37 -2 37 6 0 8 4 4 10 -3 5 -13 6 -22 3 -12
-5 -12 -2 3 15 19 23 30 29 19 13 -3 -6 2 -14 12 -19 14 -8 15 -13 4 -25 -10
-13 -9 -22 7 -54 11 -21 22 -50 26 -65 3 -16 10 -28 15 -28 10 0 2 51 -12 68
-7 8 -5 12 6 12 18 0 27 39 15 69 -4 13 -4 20 2 16 5 -3 9 13 8 35 0 23 2 44
6 47 3 3 1 12 -5 20 -6 7 -8 13 -3 13 18 0 9 62 -10 76 -18 13 -18 14 -2 14 9
0 14 5 11 10 -4 6 -12 7 -18 3 -8 -5 -8 -2 0 9 7 8 10 18 6 22 -4 3 -8 12 -9
19 -1 7 -5 26 -9 42 l-6 30 53 0 c29 0 68 4 87 8 59 15 74 17 161 27 87 10
117 16 160 32 8 3 36 12 63 18 26 7 50 17 53 22 3 4 9 6 14 3 5 -3 27 5 48 19
45 28 111 86 98 86 -5 0 -3 7 4 15 6 8 9 19 5 26 -4 6 -2 21 5 34 8 16 9 32 3
50 -5 16 -5 59 -1 99 4 39 5 79 2 88 -4 15 -31 30 -59 33 -5 1 -17 4 -25 7 -8
3 -35 12 -60 19 -49 14 -133 75 -88 64 37 -9 110 -13 145 -8 32 5 73 35 73 53
0 5 -23 21 -52 36 -45 23 -56 25 -88 15 -21 -6 -49 -11 -64 -11 -16 0 -25 -4
-21 -10 3 -6 1 -11 -4 -11 -12 -2 -13 -2 -51 -13 -14 -4 -36 -3 -49 2 -21 7
-22 10 -8 24 14 14 12 17 -25 29 l-41 13 29 9 c16 5 215 8 442 7 335 0 424 -4
473 -16 33 -8 68 -16 79 -17 11 -1 20 -4 20 -8 0 -8 218 -2 231 6 5 4 9 4 9 1
0 -3 -29 -21 -64 -41 -35 -20 -70 -42 -76 -50 -12 -14 -11 -48 3 -120 3 -11 8
-38 12 -60 4 -22 11 -43 17 -46 5 -4 11 -25 11 -48 1 -22 5 -41 8 -41 4 0 7
-6 6 -13 -1 -37 4 -57 16 -55 6 2 11 -5 11 -15 -1 -9 3 -17 8 -17 5 0 16 -6
23 -12 30 -27 41 -34 82 -50 30 -11 43 -13 46 -4 3 7 11 5 24 -7 11 -9 23 -14
26 -10 4 3 7 1 7 -5 0 -7 7 -12 15 -12 8 0 15 -4 15 -9 0 -10 31 -23 60 -26 8
-1 35 -6 60 -10 25 -5 48 -8 53 -7 4 1 7 -3 7 -9 0 -6 9 -8 20 -4 11 4 20 2
20 -4 0 -6 7 -11 16 -11 8 0 12 5 9 10 -3 6 1 10 10 10 8 0 18 7 22 16 4 12 8
13 14 3 5 -9 14 -10 31 -2 40 17 95 -3 141 -52 65 -69 87 -101 87 -128 0 -14
5 -29 10 -32 6 -4 8 -11 5 -16 -13 -19 -5 -134 10 -159 3 -5 -3 -18 -14 -29
-11 -11 -17 -21 -15 -24 3 -2 -2 -23 -9 -46 -8 -22 -11 -38 -6 -35 5 3 9 0 9
-5 0 -6 -9 -11 -20 -11 -11 0 -20 -6 -20 -14 0 -21 -27 -27 -45 -10 -21 22
-19 27 10 20 14 -4 25 -2 25 4 0 11 -43 14 -53 4 -3 -3 -1 -18 4 -33 8 -23 8
-24 -5 -8 -9 12 -16 14 -21 8 -3 -6 -3 -11 2 -12 4 0 -2 -4 -15 -9 -12 -5 -27
-21 -32 -35 -5 -14 -17 -25 -26 -25 -11 0 -15 -6 -11 -20 3 -12 0 -20 -8 -20
-7 0 -20 -11 -29 -25 -18 -27 -42 -34 -32 -10 4 10 -1 15 -14 15 -11 0 -20 -4
-20 -10 0 -5 -6 -10 -13 -10 -8 0 -30 -16 -50 -35 -26 -25 -37 -31 -37 -20 0
9 -4 14 -9 10 -5 -3 -13 0 -16 5 -5 8 -12 6 -24 -4 -9 -8 -31 -16 -48 -18 -21
-1 -33 -8 -37 -21 -2 -10 -10 -17 -18 -16 -23 4 -66 -12 -72 -28 -3 -8 -10
-11 -16 -8 -6 3 -13 -1 -16 -10 -4 -10 -10 -12 -18 -6 -11 9 -60 15 -81 11 -5
-1 -20 -1 -33 0 -12 1 -25 -6 -28 -15 -4 -9 -13 -14 -20 -11 -8 3 -14 1 -14
-4 0 -6 -4 -10 -10 -10 -13 0 -50 -32 -50 -44 0 -5 -9 -17 -21 -27 l-21 -18
28 -7 c25 -6 26 -8 9 -14 -23 -9 -20 -10 90 -31 48 -9 176 -59 194 -75 7 -7
-21 -34 -30 -29 -11 7 -109 -43 -109 -55 0 -10 15 -14 35 -10 6 1 7 -2 3 -6
-4 -4 -3 -13 3 -21 9 -10 8 -13 -4 -13 -9 0 -19 -4 -22 -10 -4 -7 227 -10 684
-10 l691 0 0 3855 0 3855 -4710 0 -4710 0 2 -222z m1578 12 c0 -5 -4 -10 -10
-10 -5 0 -10 5 -10 10 0 6 5 10 10 10 6 0 10 -4 10 -10z m7510 -220 c0 -5 -2
-10 -4 -10 -3 0 -8 5 -11 10 -3 6 -1 10 4 10 6 0 11 -4 11 -10z m-5350 -231
c-7 -11 -14 -18 -17 -15 -3 3 0 12 7 21 18 21 23 19 10 -6z m50 18 c0 -2 -9
-12 -20 -22 -24 -21 -27 -14 -4 9 15 15 24 20 24 13z m-86 -42 c3 -8 1 -15 -4
-15 -6 0 -10 7 -10 15 0 8 2 15 4 15 2 0 6 -7 10 -15z m106 -25 c0 -5 -5 -10
-11 -10 -5 0 -7 5 -4 10 3 6 8 10 11 10 2 0 4 -4 4 -10z m-94 -19 c-4 -6 -14
-7 -23 -4 -15 6 -14 7 3 13 22 9 29 6 20 -9z m-32 -46 c-4 -8 -10 -15 -15 -15
-4 0 -6 7 -3 15 4 8 10 15 15 15 4 0 6 -7 3 -15z m-24 -29 c0 -2 -8 -10 -17
-17 -16 -13 -17 -12 -4 4 13 16 21 21 21 13z m-100 -66 c-23 -27 -37 -50 -31
-50 5 0 17 10 26 23 8 12 20 22 25 22 5 0 16 9 24 20 8 11 18 17 22 13 4 -4
-16 -30 -43 -58 -41 -41 -52 -47 -57 -34 -6 15 -10 14 -34 -7 -31 -28 -23 -16
52 74 27 32 51 56 53 53 3 -3 -13 -28 -37 -56z m110 0 c-12 -16 -24 -30 -26
-30 -3 0 4 14 16 30 12 17 24 30 26 30 3 0 -4 -13 -16 -30z m-190 -13 c0 -2
-9 -12 -20 -22 -24 -21 -27 -14 -4 9 15 15 24 20 24 13z m136 -32 c-19 -29
-20 -39 -4 -29 7 5 8 3 4 -5 -5 -7 -11 -10 -14 -7 -3 3 -12 0 -20 -7 -13 -10
-14 -9 -7 3 15 26 49 70 53 70 2 0 -3 -11 -12 -25z m-105 -54 c-6 -10 -8 -21
-6 -25 3 -3 2 -4 -1 -1 -4 2 -15 -6 -25 -18 -28 -34 -23 -9 7 30 27 36 40 44
25 14z m-6 -69 l-28 -27 23 33 c12 18 25 31 28 27 3 -3 -7 -18 -23 -33z m-310
-30 c-6 -6 -55 40 -55 52 0 6 13 -3 30 -19 16 -16 28 -31 25 -33z m362 40
c-19 -21 -22 -37 -5 -26 7 4 8 3 4 -5 -4 -6 -11 -9 -16 -6 -4 3 -13 -2 -20
-10 -11 -13 -10 -14 6 -8 17 6 17 5 5 -10 -7 -9 -17 -15 -21 -12 -4 3 -14 -3
-21 -13 -13 -15 -12 -16 4 -3 33 26 17 -4 -23 -43 -43 -41 -65 -46 -27 -6 12
14 30 40 40 60 11 19 33 50 50 68 32 33 52 46 24 14z m-107 -16 c0 -2 -8 -10
-17 -17 -16 -13 -17 -12 -4 4 13 16 21 21 21 13z m20 -9 c0 -2 -15 -16 -32
-33 l-33 -29 29 33 c28 30 36 37 36 29z m-1255 -42 c-16 -14 -34 -25 -38 -25
-11 0 25 36 43 43 26 10 26 7 -5 -18z m1185 -29 c0 -2 -8 -10 -17 -17 -16 -13
-17 -12 -4 4 13 16 21 21 21 13z m-1235 -16 c-3 -5 -10 -10 -16 -10 -5 0 -9 5
-9 10 0 6 7 10 16 10 8 0 12 -4 9 -10z m725 6 c0 -3 -4 -8 -10 -11 -5 -3 -10
-1 -10 4 0 6 5 11 10 11 6 0 10 -2 10 -4z m650 -11 c0 -2 -6 -8 -13 -14 -10
-8 -14 -7 -14 2 0 8 6 14 14 14 7 0 13 -1 13 -2z m-680 -9 c0 -2 -8 -10 -17
-17 -16 -13 -17 -12 -4 4 13 16 21 21 21 13z m2104 -67 c-7 -15 -11 -29 -8
-31 3 -3 -2 -8 -9 -11 -11 -4 -13 0 -10 14 3 11 9 22 14 25 5 3 9 10 9 15 0 6
-4 7 -10 4 -11 -7 -12 -3 -4 19 5 12 9 13 19 3 10 -10 10 -17 -1 -38z m-2264
38 c0 -2 -10 -12 -21 -23 -22 -19 -22 -19 -8 4 12 19 29 30 29 19z m790 0 c0
-2 -10 -12 -22 -23 l-23 -19 19 23 c18 21 26 27 26 19z m-68 -60 c-21 -22 -58
-34 -46 -15 3 5 9 6 13 3 5 -2 16 4 26 15 10 11 20 20 23 20 3 0 -4 -10 -16
-23z m1333 -7 c3 -6 -1 -7 -9 -4 -18 7 -21 14 -7 14 6 0 13 -4 16 -10z m260
-10 c3 -5 1 -10 -4 -10 -6 0 -11 5 -11 10 0 6 2 10 4 10 3 0 8 -4 11 -10z
m385 -5 c-7 -8 -17 -12 -23 -8 -6 4 -3 9 9 14 27 11 28 11 14 -6z m-325 -72
c20 -24 35 -43 31 -43 -9 0 -67 62 -78 85 -12 23 -7 18 47 -42z m-95 43 c0 -2
-7 -7 -16 -10 -8 -3 -12 -2 -9 4 6 10 25 14 25 6z m-1690 -33 c0 -10 -70 -56
-76 -50 -3 3 66 57 73 57 2 0 3 -3 3 -7z m2373 -88 c-36 -30 -45 -23 -10 8 15
12 28 29 28 37 1 9 3 8 6 -4 3 -12 -5 -26 -24 -41z m67 15 c-33 -42 -67 -70
-85 -70 -5 0 16 25 49 55 32 30 61 55 63 55 3 0 -10 -18 -27 -40z m-2600 27
c0 -2 -10 -12 -22 -23 l-23 -19 19 23 c18 21 26 27 26 19z m2475 -7 c-3 -5
-11 -10 -16 -10 -6 0 -7 5 -4 10 3 6 11 10 16 10 6 0 7 -4 4 -10z m-35 -50 c0
-6 -8 -14 -17 -17 -10 -4 -29 -17 -43 -30 -35 -32 -49 -29 -16 4 21 21 54 44
74 52 1 1 2 -4 2 -9z m30 -14 c0 -2 -7 -9 -15 -16 -13 -11 -14 -10 -9 4 5 14
24 23 24 12z m297 -22 c-3 -3 -12 -4 -19 -1 -8 3 -5 6 6 6 11 1 17 -2 13 -5z
m-552 -44 c3 -5 1 -10 -4 -10 -6 0 -11 5 -11 10 0 6 2 10 4 10 3 0 8 -4 11
-10z m4054 -215 c-1 -36 -6 -65 -12 -65 -5 0 -23 -11 -39 -26 -35 -29 -84 -30
-82 -2 2 16 -1 16 -27 2 -17 -8 -27 -19 -24 -24 3 -5 -4 -11 -15 -15 -11 -3
-20 -10 -20 -15 0 -5 -7 -7 -15 -4 -8 4 -15 1 -15 -6 0 -7 -7 -10 -15 -7 -8 4
-17 2 -20 -4 -4 -5 -10 -7 -15 -4 -5 3 -11 1 -15 -4 -3 -6 -12 -8 -19 -5 -8 3
-17 0 -21 -5 -3 -6 -11 -9 -16 -6 -5 4 -9 3 -9 -2 0 -4 -10 -9 -22 -9 -78 -5
-99 -8 -104 -16 -7 -11 -44 -11 -44 0 0 5 -7 9 -15 9 -8 0 -15 -5 -15 -11 0
-6 -5 -4 -10 4 -9 13 -12 13 -24 -3 -10 -13 -15 -15 -18 -5 -4 9 -9 10 -19 2
-8 -5 -21 -10 -29 -9 -8 1 -23 3 -33 3 -10 1 -15 7 -12 12 4 6 11 8 16 4 5 -3
8 -1 7 4 -4 14 65 59 109 71 55 15 75 11 28 -5 l-40 -14 40 6 c46 7 57 12 50
23 -2 5 12 8 33 8 23 0 66 13 112 35 82 39 235 89 244 80 3 -3 6 0 6 6 0 6 7
9 17 5 12 -5 14 -3 8 8 -4 8 -5 11 0 7 4 -4 16 -3 26 3 11 5 19 8 19 5 0 -7
-121 -92 -140 -99 -12 -4 -12 -6 1 -6 21 -1 126 68 159 105 19 21 21 26 7 21
-11 -4 -16 -3 -12 3 3 6 13 10 21 10 12 0 15 -13 13 -65z m-2082 -357 c-3 -8
-6 -5 -6 6 -1 11 2 17 5 13 3 -3 4 -12 1 -19z m1773 -787 c0 -4 -11 -6 -25 -3
-14 2 -25 6 -25 8 0 2 11 4 25 4 14 0 25 -4 25 -9z m37 -6 c0 -18 -19 -15 -25
3 -2 7 3 12 11 12 7 0 14 -7 14 -15z m-41 -20 c11 -27 -1 -30 -23 -7 -22 21
-22 22 -2 22 11 0 22 -7 25 -15z m-174 -26 c-2 -13 -10 -31 -18 -39 -13 -13
-14 -12 -5 12 7 18 7 29 0 33 -13 8 0 27 14 22 7 -2 11 -15 9 -28z m148 1 c0
-6 10 -15 23 -21 l22 -10 -22 5 c-13 2 -23 -1 -23 -7 0 -7 -7 -20 -14 -30 -12
-15 -14 -15 -19 -3 -4 9 0 22 8 30 20 19 19 26 -2 26 -15 0 -16 2 -3 10 20 13
30 13 30 0z m-194 -56 c-4 -9 -9 -15 -11 -12 -3 3 -3 13 1 22 4 9 9 15 11 12
3 -3 3 -13 -1 -22z m147 -25 c4 -15 11 -20 21 -16 18 7 20 -1 6 -23 -7 -11
-10 -12 -10 -2 0 8 -5 12 -11 10 -6 -2 -10 -7 -9 -12 1 -5 -4 -13 -12 -17 -9
-6 -6 -9 12 -10 14 -1 30 0 35 1 6 1 6 -2 2 -7 -5 -4 -17 -9 -28 -9 -10 -1
-26 -2 -34 -3 -8 0 -15 -9 -15 -18 0 -15 -2 -15 -9 -4 -15 23 -44 -6 -36 -36
3 -13 1 -23 -5 -23 -6 0 -8 -5 -5 -10 4 -6 21 -9 39 -7 30 4 32 2 28 -22 -4
-25 -4 -25 11 -6 12 15 18 17 27 8 9 -8 7 -14 -9 -23 -12 -6 -18 -16 -15 -22
5 -7 1 -9 -9 -5 -12 5 -17 1 -17 -13 0 -11 -5 -20 -11 -20 -7 0 -9 10 -6 25 4
24 3 25 -14 9 -17 -15 -17 -18 -2 -40 14 -22 14 -24 -2 -24 -11 0 -15 5 -11
16 4 10 2 13 -7 7 -6 -4 -21 -7 -32 -6 -11 2 -14 0 -7 -3 10 -5 10 -9 0 -22
-12 -14 -10 -14 11 -2 20 10 26 10 35 -2 6 -8 18 -13 26 -11 13 4 13 3 1 -5
-10 -7 -20 -6 -32 1 -24 15 -36 2 -18 -20 11 -13 11 -15 1 -9 -10 6 -9 -1 3
-24 9 -18 12 -29 6 -26 -7 5 -11 -1 -11 -14 0 -16 -4 -20 -16 -16 -10 4 -13 2
-7 -7 8 -12 9 -17 12 -52 1 -16 3 -17 11 -5 5 8 12 11 16 7 4 -3 2 -12 -4 -20
-6 -7 -10 -33 -8 -57 3 -39 2 -42 -10 -25 -8 10 -14 22 -14 27 0 4 -8 8 -17 8
-9 0 -14 -3 -10 -6 3 -3 2 -17 -3 -30 -7 -18 -6 -22 5 -17 8 3 13 9 10 13 -3
5 0 12 6 15 7 5 9 -1 7 -16 -1 -13 -13 -28 -25 -34 -13 -5 -23 -18 -23 -29 0
-18 1 -19 20 -1 19 17 20 17 20 -1 0 -10 -7 -31 -14 -46 -9 -16 -10 -28 -5
-28 6 0 8 -4 5 -9 -3 -5 1 -12 10 -15 8 -3 12 -10 9 -16 -3 -5 1 -10 9 -10 9
0 16 5 16 10 0 6 -5 10 -11 10 -5 0 -7 5 -3 12 5 7 3 8 -6 3 -10 -6 -11 -4 -5
11 4 10 7 36 6 57 -1 22 3 37 9 37 8 0 9 -11 5 -30 -4 -19 -3 -30 4 -30 6 0
11 -5 11 -11 0 -5 -4 -7 -10 -4 -13 8 -13 -11 1 -36 7 -14 7 -24 0 -33 -6 -7
-8 -15 -5 -19 3 -3 -4 -8 -15 -12 -12 -3 -21 -12 -22 -18 -1 -21 -7 -41 -18
-67 -10 -22 -11 -23 -7 -2 2 12 0 20 -4 17 -5 -3 -12 -26 -16 -50 -3 -26 -10
-42 -16 -39 -6 4 -5 -3 1 -15 13 -24 23 -28 15 -6 -4 8 -2 15 4 15 5 0 12 -7
16 -15 4 -12 10 -13 33 -3 15 7 33 19 39 27 6 8 21 16 34 18 19 3 21 1 10 -12
-9 -10 -9 -15 -1 -15 27 0 7 -19 -42 -40 -60 -26 -94 -70 -77 -98 8 -15 9 -14
10 6 0 14 4 21 11 16 6 -3 9 -15 6 -25 -6 -21 8 -26 16 -6 3 6 4 2 4 -10 -1
-12 -6 -21 -12 -20 -5 1 -9 -5 -9 -14 1 -9 -4 -16 -11 -16 -8 0 -11 9 -9 24 6
33 -5 29 -17 -7 -6 -16 -15 -28 -19 -25 -5 3 -12 1 -15 -5 -4 -6 -1 -9 6 -8 6
2 14 -3 17 -11 3 -10 0 -11 -9 -5 -12 6 -12 5 0 -9 8 -10 11 -21 7 -24 -4 -4
-12 -1 -17 7 -9 12 -9 11 -4 -5 4 -11 8 -25 8 -32 0 -8 6 -9 16 -3 9 4 21 8
26 9 6 0 18 8 28 16 14 13 17 13 17 0 0 -7 -4 -17 -10 -20 -5 -3 -10 -15 -10
-26 0 -11 -10 -24 -23 -30 -12 -6 -29 -25 -36 -42 -8 -18 -22 -39 -33 -47 -18
-15 -18 -16 4 -16 13 0 26 4 30 10 4 6 10 7 14 3 10 -10 13 -87 3 -81 -5 3 -9
-2 -9 -11 0 -9 -4 -13 -10 -10 -13 8 -25 -44 -13 -56 7 -7 16 -1 27 15 9 15
13 26 9 26 -9 0 30 29 40 30 4 0 7 -4 7 -10 0 -5 -8 -10 -17 -10 -13 0 -14 -3
-5 -12 7 -7 12 -18 12 -25 0 -14 -41 -59 -51 -56 -4 1 -4 -8 -1 -20 5 -21 5
-21 -13 -4 -14 15 -20 16 -26 5 -6 -9 4 -19 36 -35 42 -22 63 -52 50 -73 -3
-5 -1 -18 4 -29 7 -12 8 -48 3 -101 -5 -45 -5 -83 0 -86 4 -3 25 6 47 20 21
14 43 22 47 18 5 -4 1 3 -9 14 -12 15 -16 30 -11 48 6 27 24 46 24 26 0 -6 4
-9 9 -5 6 3 6 -7 0 -27 -9 -32 3 -52 26 -44 42 15 55 16 55 7 0 -6 -11 -13
-25 -17 -26 -7 -102 -73 -97 -86 1 -4 -3 -7 -10 -6 -13 3 -56 -67 -57 -94 -1
-11 -6 -15 -16 -12 -8 4 -12 11 -8 18 4 7 1 6 -9 -2 -8 -7 -23 -10 -32 -6 -9
3 -16 1 -16 -5 0 -6 4 -11 10 -11 5 0 -6 -16 -25 -36 -19 -20 -35 -41 -35 -47
0 -8 4 -7 12 1 15 15 32 16 23 2 -3 -5 -1 -10 5 -10 6 0 8 -5 4 -11 -5 -8 -9
-8 -14 1 -5 9 -17 4 -40 -16 -18 -16 -36 -28 -40 -27 -5 1 -11 -4 -14 -12 -3
-8 -1 -15 5 -15 6 0 8 -4 4 -10 -3 -5 -12 -7 -20 -4 -11 5 -12 11 -5 24 13 25
13 37 -1 23 -6 -6 -17 -10 -23 -9 -6 2 -8 1 -4 -1 5 -3 3 -13 -3 -24 -11 -22
-34 -15 -25 7 4 9 -2 14 -17 15 -21 0 -21 1 3 11 l25 11 -25 7 c-14 3 -32 2
-41 -4 -11 -6 -28 -6 -50 1 -27 8 -30 12 -16 17 24 9 51 19 57 21 3 2 15 6 28
10 28 9 29 25 0 25 -22 0 -20 10 4 14 7 2 30 6 51 11 25 5 42 3 52 -5 15 -12
35 -6 35 12 0 6 -8 8 -18 6 -10 -3 -27 1 -37 8 -12 9 -23 10 -36 3 -15 -7 -17
-6 -13 5 4 11 -6 16 -41 21 -47 8 -75 26 -75 50 0 16 -30 35 -55 35 -8 0 -21
-12 -28 -27 -6 -16 -18 -33 -26 -39 -8 -6 -12 -18 -8 -27 3 -9 1 -18 -6 -21
-9 -3 -8 -7 2 -14 9 -7 22 -7 38 1 28 13 34 8 26 -21 -5 -22 -23 -31 -23 -12
0 14 -48 2 -77 -19 -12 -9 -21 -21 -18 -28 2 -6 -3 -14 -11 -17 -8 -3 -14 -10
-14 -15 0 -7 9 -7 25 -1 14 5 25 6 25 2 0 -4 25 -6 55 -5 56 1 66 -10 19 -21
-15 -4 -32 -2 -40 5 -12 10 -17 9 -27 -1 -9 -9 -9 -11 0 -6 6 3 14 2 18 -4 4
-6 -6 -10 -24 -10 -32 0 -49 -15 -27 -23 7 -3 19 0 25 6 9 9 11 8 6 -5 -8 -21
-10 -21 -35 -8 -14 7 -28 3 -61 -20 -44 -29 -68 -33 -33 -4 16 13 17 15 2 10
-10 -3 -18 -2 -18 2 0 5 -17 6 -37 4 -28 -2 -34 -1 -23 7 13 9 13 12 1 23 -9
8 -11 8 -7 1 7 -13 -28 -28 -44 -18 -5 3 -10 0 -10 -7 0 -9 -3 -9 -10 2 -7 12
-12 12 -22 2 -6 -6 -17 -12 -23 -12 -5 0 -3 5 5 10 8 5 11 10 5 10 -19 0 -38
-18 -31 -29 5 -7 -1 -11 -16 -11 -18 0 -20 2 -8 10 28 17 5 18 -31 0 -51 -24
-86 -30 -86 -14 0 7 3 12 6 10 3 -2 20 2 36 10 24 11 25 12 5 7 -14 -3 -33 -6
-42 -5 -10 0 -25 -9 -33 -21 -9 -12 -15 -16 -15 -8 0 10 -3 11 -14 2 -9 -7
-17 -8 -20 -2 -3 5 -1 12 4 14 6 3 5 4 -2 2 -7 -1 -12 -8 -10 -14 1 -8 -7 -9
-24 -5 -16 4 -25 3 -21 -3 3 -5 -12 -14 -33 -20 -22 -5 -37 -6 -34 -2 3 5 11
9 19 9 8 0 17 5 21 11 11 19 -48 6 -85 -18 -26 -16 -39 -20 -52 -12 -11 5 -18
15 -16 21 1 7 -2 12 -8 13 -5 0 -15 4 -22 8 -6 4 -14 1 -16 -5 -4 -10 -8 -10
-15 1 -6 8 -15 10 -23 5 -7 -4 -26 -7 -42 -6 -17 2 -26 -2 -22 -8 4 -6 -6 -10
-24 -10 -17 0 -31 5 -31 10 0 6 -15 9 -32 9 l-33 -1 30 -8 c22 -6 25 -8 10
-10 -11 -1 -30 -1 -42 -1 -11 1 -24 -3 -28 -9 -3 -5 -11 -8 -16 -4 -6 4 -6 11
2 20 9 12 5 14 -27 14 -31 0 -36 -3 -24 -11 13 -9 13 -10 -1 -6 -9 3 -22 0
-29 -6 -10 -10 -10 -7 -1 10 11 22 10 22 -20 16 -23 -4 -30 -3 -25 5 4 7 2 12
-3 12 -6 0 -11 -4 -11 -10 0 -6 -27 -10 -61 -10 -45 0 -58 3 -53 13 6 10 4 10
-7 0 -18 -18 -29 -16 -30 5 0 13 -2 12 -9 -5 -5 -13 -12 -23 -15 -23 -4 0 -3
5 1 12 5 7 2 9 -9 5 -9 -3 -17 -2 -19 4 -2 5 -17 12 -33 14 -21 4 -26 3 -15
-4 8 -5 18 -7 22 -5 4 3 8 1 8 -4 0 -5 -38 -9 -85 -8 -83 1 -109 9 -60 18 14
3 25 1 25 -4 0 -5 5 -6 11 -2 20 12 -12 22 -42 14 -36 -11 -102 -5 -107 9 -2
5 -9 8 -15 5 -7 -2 -33 0 -59 5 -27 4 -45 5 -42 0 3 -5 0 -9 -5 -9 -6 0 -11 6
-12 13 0 9 -2 9 -6 0 -7 -19 -23 -16 -23 4 0 14 -3 14 -22 -3 -19 -17 -21 -17
-15 -1 5 14 1 17 -24 17 -16 0 -45 6 -64 14 -24 10 -37 11 -41 4 -4 -7 -10 -5
-16 6 -5 9 -14 16 -21 16 -7 0 -6 -4 3 -10 8 -5 10 -10 4 -10 -6 0 -14 3 -18
7 -3 4 -12 8 -19 9 -7 1 -32 8 -57 14 -25 7 -85 14 -134 17 -49 2 -98 8 -109
14 -12 7 -17 7 -13 1 3 -6 -16 -2 -44 8 -28 10 -52 14 -56 9 -3 -5 -10 -9 -15
-9 -6 0 -7 4 -4 10 3 5 -1 10 -10 10 -10 0 -13 -5 -9 -12 5 -8 0 -7 -11 2 -10
8 -21 14 -24 13 -3 -1 -5 6 -3 15 2 16 2 16 -11 0 -11 -14 -20 -15 -58 -7 -24
6 -54 8 -66 6 -12 -2 -20 0 -17 5 12 19 -77 1 -101 -20 -14 -12 -33 -22 -43
-21 -14 0 -14 2 3 9 11 5 16 9 10 10 -16 3 -30 7 -35 9 -18 8 -60 8 -60 0 0
-5 -4 -9 -8 -9 -5 0 -9 7 -9 16 0 11 7 14 24 11 14 -2 21 -1 16 4 -4 4 -37 10
-73 13 -36 2 -72 7 -81 11 -9 3 -34 7 -57 8 -31 2 -38 0 -31 -10 8 -9 5 -11
-10 -10 -11 0 -19 4 -19 7 1 17 -4 19 -16 8 -8 -7 -12 -15 -11 -18 3 -5 -8 -6
-77 -2 -35 2 -49 30 -54 105 -6 97 -24 91 -50 -16 -13 -50 -21 -67 -31 -63 -8
3 -11 1 -8 -4 3 -6 -1 -10 -9 -10 -9 0 -16 6 -16 13 0 9 -2 9 -8 0 -11 -17
-62 -28 -62 -13 0 6 -5 8 -11 5 -11 -8 -40 25 -33 37 3 5 1 8 -5 8 -5 0 -11
-5 -13 -12 -2 -6 -9 -9 -14 -5 -7 4 -2 31 13 78 35 102 23 119 -15 22 -38 -97
-38 -104 -12 -121 12 -7 20 -8 20 -2 0 5 4 10 10 10 5 0 7 -7 4 -15 -5 -11 1
-15 20 -15 14 0 26 -5 26 -11 0 -6 -6 -9 -14 -6 -7 3 -19 0 -25 -6 -8 -8 -11
-8 -11 2 0 7 -10 11 -22 10 -13 -1 -36 3 -51 9 -35 15 -40 15 -31 1 4 -7 -3
-6 -17 2 -31 16 -99 29 -99 18 0 -4 -21 -2 -47 6 -58 18 -56 18 -47 3 4 -6 3
-8 -4 -4 -13 8 -105 27 -147 31 -16 1 -30 3 -30 5 0 1 -13 4 -30 5 -16 2 -41
6 -54 9 -12 3 -43 8 -68 11 -24 2 -50 8 -56 12 -6 3 -36 12 -66 18 -32 7 -55
17 -54 23 2 6 -4 9 -12 6 -8 -4 -15 -1 -15 5 0 6 -12 17 -27 26 -23 13 -24 15
-5 10 13 -4 22 -2 22 4 0 6 3 10 8 10 4 -1 13 -1 20 0 23 2 4 17 -25 19 -15 1
-66 13 -113 26 -79 22 -82 24 -42 25 44 1 61 21 17 21 -18 0 -25 5 -25 20 0
23 -10 26 -28 8 -10 -10 -12 -7 -8 12 2 14 9 24 15 23 6 -2 11 4 11 12 0 10
10 15 30 15 24 0 30 -4 30 -21 0 -19 4 -21 36 -16 20 3 34 3 30 0 -12 -12 28
-43 56 -43 l29 0 -29 31 c-19 21 -40 32 -58 33 -18 1 -30 7 -32 18 -3 14 2 15
35 7 21 -5 167 -12 324 -16 l287 -6 22 49 c12 27 33 77 45 112 28 78 39 90 32
34 -3 -23 -1 -59 5 -80 7 -26 7 -37 -1 -40 -6 -2 -11 -10 -11 -18 0 -7 6 -11
14 -8 17 6 26 -53 14 -88 -8 -22 -7 -22 7 -4 18 23 18 38 4 90 -15 55 -2 65
57 43 41 -15 45 -15 40 -1 -3 9 -6 21 -7 27 0 7 -4 4 -8 -7 -7 -17 -8 -17 -23
-2 -9 9 -26 15 -38 14 -12 -2 -27 5 -34 14 -9 15 -6 22 17 43 27 26 36 42 16
29 -12 -7 -31 15 -23 28 3 4 20 8 38 8 28 0 34 -5 48 -37 9 -21 19 -57 23 -80
4 -23 13 -47 21 -54 7 -6 11 -15 8 -20 -5 -9 7 -11 146 -14 174 -5 176 -5 160
-15 -11 -7 0 -10 40 -11 40 -2 30 -4 -37 -8 -65 -4 -97 -11 -109 -22 -14 -15
-9 -17 61 -28 42 -6 98 -11 125 -11 49 0 49 0 56 38 3 20 12 60 20 87 l13 50
-6 -55 c-3 -30 -9 -65 -14 -78 -19 -49 -12 -59 43 -65 28 -4 55 -12 60 -19 6
-10 8 -9 8 4 0 15 3 15 28 2 15 -7 34 -14 42 -14 9 0 21 -5 28 -12 9 -9 12 1
14 48 2 56 2 57 5 12 l4 -48 42 -1 c80 -3 120 -8 126 -17 3 -5 23 -15 43 -22
32 -12 37 -17 32 -37 -4 -13 -2 -23 2 -22 33 6 54 -3 60 -25 3 -13 16 -34 30
-47 21 -20 36 -22 136 -25 140 -4 494 -22 693 -35 229 -15 794 -23 940 -14
125 8 128 9 75 18 -30 5 -68 15 -85 22 -16 7 -56 19 -88 26 -57 12 -57 12 -34
28 35 24 77 72 71 82 -7 13 -104 11 -104 -1 0 -6 7 -13 17 -17 14 -6 13 -7 -5
-14 -11 -4 -48 -11 -81 -15 -59 -6 -78 -22 -49 -40 14 -9 -15 -22 -52 -23 -24
-1 -26 2 -22 33 3 24 9 34 21 34 34 -1 166 14 171 19 3 3 -1 8 -7 10 -7 3 -13
11 -13 19 0 12 14 15 75 13 42 -1 80 2 85 7 6 6 13 31 16 56 l6 46 -41 -11
c-29 -8 -41 -17 -41 -29 0 -13 -8 -18 -29 -18 -29 0 -29 1 -20 32 13 47 13 48
-31 48 l-40 0 0 -77 0 -78 -75 -3 c-45 -1 -75 2 -75 8 0 5 15 10 34 10 18 0
48 3 65 6 27 6 31 11 30 38 0 17 -4 40 -8 50 -7 19 -8 19 -15 1 -5 -14 -9 -16
-18 -7 -15 15 -118 16 -118 1 0 -5 -4 -7 -10 -4 -15 10 -12 -6 6 -26 15 -16
14 -16 -19 -1 -31 15 -33 20 -31 55 3 36 3 37 -31 37 -24 0 -35 -5 -35 -15 0
-8 6 -15 13 -16 9 0 9 -2 -1 -6 -29 -11 -83 -70 -91 -98 l-8 -30 -349 5 c-192
3 -427 5 -521 5 -139 0 -173 3 -173 14 0 7 -15 28 -34 47 -27 27 -42 34 -73
34 -21 0 -44 -5 -51 -12 -8 -8 -12 -8 -12 -1 0 15 25 23 72 23 35 0 47 -6 78
-38 l36 -39 195 -7 c107 -3 242 -9 302 -12 l107 -7 0 66 0 65 -62 6 c-35 3
-180 8 -323 12 -143 3 -308 8 -366 10 l-106 4 -22 -40 c-12 -22 -24 -40 -27
-40 -10 0 42 89 82 140 24 30 63 81 87 112 l44 57 -3 -57 -3 -57 10 68 c17
112 87 211 197 281 45 28 132 56 176 56 47 0 77 20 102 67 12 23 25 39 28 36
3 -4 6 1 6 10 0 9 6 17 12 17 18 0 -28 30 -54 35 -12 3 -26 11 -30 20 -5 8
-16 15 -23 15 -8 0 -15 5 -15 11 0 5 -5 7 -12 3 -7 -4 -8 -3 -4 4 4 7 13 12
20 12 24 0 34 21 25 53 -6 22 -5 35 5 46 7 9 11 23 8 31 -4 13 -3 13 11 2 9
-8 21 -11 27 -7 12 7 12 3 4 -19 -3 -9 -16 -16 -28 -17 -20 0 -20 -1 -1 -8 13
-5 20 -18 21 -39 1 -18 -2 -29 -7 -26 -5 3 -9 -2 -9 -10 0 -9 7 -16 15 -16 14
0 16 8 19 62 1 10 7 23 14 30 7 7 12 20 12 29 0 9 7 19 15 23 8 3 15 9 14 13
-1 4 -1 18 0 31 1 30 19 28 19 -3 0 -14 -5 -22 -11 -18 -6 3 -7 1 -3 -6 4 -6
12 -9 17 -6 5 4 9 1 9 -6 0 -12 14 -4 16 9 10 48 39 76 41 41 2 -28 25 -47 59
-46 16 0 23 2 17 4 -22 8 -14 28 27 71 21 23 41 42 44 42 7 0 1 -49 -7 -57 -4
-3 -7 -1 -7 6 0 9 -4 8 -15 -3 -22 -22 -20 -39 4 -26 11 5 28 7 38 3 15 -6 16
-5 5 9 -10 12 -10 18 -1 23 15 10 30 -15 23 -40 -4 -11 -7 -20 -8 -21 0 0 -18
-11 -38 -23 -20 -12 -60 -52 -89 -89 -29 -37 -67 -81 -86 -97 -35 -32 -45 -62
-17 -51 56 22 59 11 4 -18 -49 -25 -70 -43 -82 -70 l-18 -36 108 0 c120 1 372
16 379 24 3 3 2 22 -2 43 l-8 38 -12 -35 c-10 -31 -17 -36 -56 -41 -36 -6
-202 -12 -245 -10 -21 2 -2 51 35 91 35 39 39 40 126 50 50 5 181 10 293 10
l203 0 52 -33 c29 -19 76 -55 106 -80 29 -25 68 -53 85 -61 17 -8 41 -25 53
-38 24 -27 67 -111 77 -151 6 -26 14 -32 116 -84 34 -18 35 -19 34 -78 -1 -63
-12 -153 -20 -167 -6 -10 20 -38 36 -38 6 0 9 -4 6 -9 -7 -10 16 -21 47 -21
21 -1 21 -1 4 -14 -17 -14 -17 -15 5 -21 33 -10 88 -35 88 -41 0 -3 -4 -2 -10
1 -5 3 -10 1 -10 -5 0 -6 -6 -8 -12 -4 -10 5 -10 4 -1 -6 8 -9 49 -12 150 -11
169 3 162 2 157 15 -2 6 19 22 47 36 46 22 64 34 107 70 15 14 16 70 0 70 -9
0 -9 3 0 12 7 7 12 20 12 30 0 10 6 17 12 16 14 -3 32 153 24 215 -2 20 0 35
5 31 5 -3 6 1 3 9 -3 8 0 18 6 22 7 5 10 -47 8 -182 -3 -182 -2 -188 17 -188
15 0 19 6 18 23 -2 13 1 21 7 17 6 -3 10 5 10 19 0 32 16 42 29 19 10 -17 10
-16 11 3 0 30 8 34 39 18 19 -10 35 -11 56 -4 28 9 29 10 3 6 -20 -2 -28 2
-32 17 -4 17 -7 18 -21 7 -13 -11 -19 -9 -39 9 -18 17 -25 19 -29 9 -3 -7 -6
-4 -6 8 -1 11 -4 24 -8 28 -11 11 -13 45 -3 51 6 4 12 0 15 -7 6 -15 45 -22
45 -9 0 5 -7 14 -15 21 -8 7 -15 19 -15 26 0 8 -8 14 -17 14 -17 1 -17 1 -1
10 10 7 25 7 41 1 17 -7 38 -6 62 2 33 10 36 14 31 37 -4 22 4 36 45 78 50 52
55 72 19 72 -11 0 -24 9 -30 19 -14 28 -13 34 8 26 14 -5 15 -4 5 6 -19 19
-16 31 7 24 11 -4 20 -2 20 4 0 6 7 11 15 11 9 0 25 9 37 20 17 16 19 22 9 34
-7 8 -22 18 -32 21 -33 11 -20 47 21 58 l34 9 -23 17 -23 18 38 16 c31 12 35
17 22 22 -22 9 -24 25 -3 25 8 0 15 5 15 10 0 6 -7 10 -16 10 -8 0 -12 5 -9
10 4 6 -1 22 -10 37 -12 17 -14 28 -6 36 5 5 7 23 4 38 -4 24 -2 28 16 26 11
-1 21 -5 21 -9 0 -4 12 -8 26 -8 19 0 25 4 22 18 -2 9 -11 16 -20 14 -9 -1
-19 2 -23 8 -4 6 1 7 11 3 14 -5 16 -3 10 13 -6 15 -5 17 5 7 13 -13 49 -18
49 -7 0 7 -27 34 -35 34 -12 0 -59 49 -61 65 -1 9 4 19 12 22 15 5 47 -21 37
-31 -12 -12 13 -6 26 7 11 10 13 10 7 0 -10 -18 28 -17 43 1 9 11 3 14 -35 19
-57 6 -73 25 -37 44 14 7 34 11 45 8 10 -4 18 -2 18 2 0 15 -22 32 -35 27 -6
-3 -17 2 -24 10 -7 8 -19 12 -27 9 -8 -3 -14 0 -14 6 0 6 6 11 13 12 10 0 10
2 0 6 -7 2 -13 9 -13 14 0 10 29 7 49 -5 11 -7 13 -5 7 10 -13 34 -11 39 16
42 27 3 27 4 12 27 -14 22 -14 24 8 40 21 15 22 17 6 26 -10 5 -18 16 -18 23
0 15 27 30 48 27 6 -1 12 2 12 7 0 5 9 12 20 15 11 3 20 11 20 17 0 7 -7 10
-15 6 -8 -3 -14 0 -12 7 1 7 -4 11 -11 9 -7 -1 -22 7 -34 18 l-21 19 24 9 c13
5 30 7 37 5 6 -3 12 0 12 6 0 6 -11 16 -24 21 -18 7 -23 14 -19 29 5 20 18 25
55 22 16 -2 19 21 6 35 -4 3 -3 17 2 29 8 21 6 24 -17 27 -16 2 -29 12 -34 26
-7 19 -6 23 9 21 25 -4 82 11 82 21 0 5 -7 15 -14 23 -13 13 -11 15 12 15 15
0 33 -5 40 -10 6 -6 12 -7 12 -3 0 5 9 0 19 -9 13 -12 27 -16 43 -11 19 5 20
4 8 -5 -13 -10 -13 -11 0 -7 18 4 23 49 6 59 -7 5 -5 8 5 8 9 0 19 -10 22 -21z
m11 -114 c3 -8 1 -15 -4 -15 -6 0 -10 7 -10 15 0 8 2 15 4 15 2 0 6 -7 10 -15z
m-4 -68 c0 -6 -9 0 -20 13 -11 13 -20 28 -20 33 0 6 9 0 20 -13 11 -13 20 -28
20 -33z m246 -31 c1 -17 -1 -25 -3 -18 -3 6 -11 12 -19 12 -12 0 -12 -4 1 -24
15 -22 14 -24 -6 -29 -11 -3 -18 -10 -14 -16 4 -7 -5 -11 -24 -11 -17 0 -31 5
-31 10 0 6 6 10 13 10 7 0 23 7 35 16 20 14 22 18 9 33 -30 34 -28 49 6 48 29
-1 32 -4 33 -31z m-26 -127 c0 -16 -5 -20 -20 -16 -12 3 -17 1 -14 -5 3 -5 0
-9 -7 -7 -31 4 -49 -2 -49 -15 0 -12 -4 -12 -30 0 -37 19 -38 26 -2 18 21 -4
24 -3 12 5 -12 9 -9 10 15 7 18 -4 35 0 46 10 10 9 23 13 30 8 8 -4 10 -3 5 4
-4 7 -2 12 3 12 6 0 11 -10 11 -21z m-297 -114 c-3 -9 -8 -14 -10 -11 -3 3 -2
9 2 15 9 16 15 13 8 -4z m257 -21 c0 -9 -5 -12 -12 -8 -8 5 -9 2 -5 -9 3 -10
4 -17 1 -17 -9 0 -64 30 -64 36 0 3 4 3 8 0 7 -4 35 1 70 13 1 1 2 -6 2 -15z
m-260 -26 c0 -16 -3 -19 -11 -11 -6 6 -8 16 -5 22 11 17 16 13 16 -11z m-5215
-10 c-4 -16 -3 -19 3 -9 7 9 12 10 16 2 4 -6 3 -11 -3 -11 -6 0 -8 -6 -5 -14
3 -8 0 -17 -7 -22 -9 -5 -11 -2 -6 9 3 8 0 18 -7 20 -10 4 -12 -1 -8 -15 4
-16 1 -19 -14 -14 -10 3 -26 1 -34 -4 -13 -8 -12 -10 3 -10 10 0 15 -4 12 -10
-3 -5 -1 -10 4 -10 6 0 11 5 11 10 0 6 7 10 15 10 8 0 15 -4 15 -10 0 -5 -5
-10 -11 -10 -6 0 -9 -9 -6 -19 3 -14 1 -18 -9 -14 -8 3 -11 9 -8 14 6 11 -4
11 -31 -1 -19 -7 -18 -9 8 -19 15 -6 27 -16 27 -22 0 -8 4 -8 15 1 9 7 18 10
21 7 3 -3 -4 -11 -16 -17 -12 -7 -19 -18 -16 -25 7 -19 -13 -30 -27 -16 -9 9
-7 10 8 5 17 -7 18 -6 5 8 -11 11 -19 13 -28 6 -19 -17 -26 -1 -8 18 15 15 15
17 -4 34 -18 15 -18 19 -5 24 9 3 15 14 13 25 -2 10 9 32 23 48 14 16 24 34
21 41 -2 7 5 12 18 12 17 0 20 -4 15 -22z m560 2 c3 -5 1 -10 -4 -10 -6 0 -11
5 -11 10 0 6 2 10 4 10 3 0 8 -4 11 -10z m2160 -29 c-3 -12 -10 -21 -15 -21
-4 0 -3 11 3 24 14 29 22 27 12 -3z m86 2 c-12 -20 -14 -14 -5 12 4 9 9 14 11
11 3 -2 0 -13 -6 -23z m2658 -4 c-11 -7 -10 -9 4 -9 9 0 17 -5 17 -11 0 -10
-48 -5 -59 7 -7 7 33 33 42 27 5 -3 3 -9 -4 -14z m-4895 -51 c-2 -3 0 -9 5
-13 7 -4 6 -15 -1 -31 -10 -22 -9 -27 5 -35 19 -11 23 -29 6 -29 -5 0 -7 5 -4
10 3 6 1 10 -4 10 -6 0 -11 -5 -11 -11 0 -6 -7 -9 -15 -5 -11 4 -15 -2 -15
-24 0 -29 -15 -48 -28 -35 -3 3 0 10 8 15 12 8 12 10 -4 10 -12 0 -16 5 -12
16 3 8 1 24 -4 35 -7 12 -7 19 -1 19 6 0 8 7 5 15 -7 17 11 21 21 5 7 -12 25
-4 25 12 0 5 -6 8 -14 5 -8 -3 -20 1 -26 9 -10 11 -9 14 3 14 11 0 14 6 11 15
-4 8 0 22 7 31 11 14 15 13 30 -7 10 -13 15 -27 13 -31z m4636 17 c0 -8 -4
-15 -10 -15 -5 0 -7 7 -4 15 4 8 8 15 10 15 2 0 4 -7 4 -15z m255 -39 c-11 -8
-16 -20 -12 -29 4 -11 2 -14 -9 -10 -22 8 -17 39 9 50 28 13 36 7 12 -11z
m-45 -7 c0 -4 -7 -6 -15 -3 -8 4 -15 10 -15 15 0 4 7 6 15 3 8 -4 15 -10 15
-15z m-220 -34 c7 -9 8 -15 2 -15 -5 0 -12 7 -16 15 -3 8 -4 15 -2 15 2 0 9
-7 16 -15z m-5250 -82 c0 -2 -6 -3 -12 0 -7 2 -21 -2 -30 -11 -22 -19 -24 -9
-2 12 14 15 14 17 0 22 -9 3 -16 10 -16 16 0 5 14 0 30 -12 17 -12 30 -24 30
-27z m545 37 c3 -5 1 -10 -4 -10 -6 0 -11 5 -11 10 0 6 2 10 4 10 3 0 8 -4 11
-10z m4155 7 c0 -2 -10 -12 -22 -23 l-23 -19 19 23 c18 21 26 27 26 19z m810
-5 c0 -5 -7 -9 -15 -9 -8 0 -12 4 -9 9 3 4 9 8 15 8 5 0 9 -4 9 -8z m-4871
-28 c8 5 8 0 -1 -18 -11 -25 -11 -26 -25 -6 -8 11 -11 25 -7 31 5 8 9 8 14 -1
4 -7 13 -9 19 -6z m1031 6 c0 -5 -2 -10 -4 -10 -3 0 -8 5 -11 10 -3 6 -1 10 4
10 6 0 11 -4 11 -10z m2948 -40 c-11 -17 -10 -22 10 -35 21 -16 21 -17 5 -48
-15 -30 -15 -31 1 -18 25 21 31 6 6 -19 -12 -12 -19 -28 -16 -36 4 -9 -3 -18
-17 -24 -12 -5 -16 -9 -9 -9 6 -1 12 -6 12 -11 0 -6 -11 -8 -27 -4 -24 6 -26
5 -16 -8 7 -8 11 -18 8 -22 -3 -3 1 -2 7 4 17 14 31 12 25 -4 -8 -20 4 -28 21
-13 11 8 14 8 9 0 -10 -16 1 -40 18 -40 8 0 15 4 15 9 0 4 5 8 10 8 7 0 7 -6
1 -19 -6 -10 -7 -21 -4 -25 3 -3 -1 -6 -9 -6 -11 0 -14 -6 -11 -18 2 -10 -3
-24 -11 -31 -9 -8 -16 -19 -16 -26 0 -7 -12 -20 -26 -30 -14 -9 -30 -29 -35
-45 -6 -15 -20 -31 -32 -34 -17 -5 -19 -8 -8 -15 7 -5 10 -15 7 -22 -4 -8 3
-2 16 14 23 26 46 38 33 17 -3 -5 0 -10 7 -10 8 0 6 -5 -5 -11 -12 -7 -15 -17
-11 -33 3 -13 -1 -39 -9 -59 -9 -19 -13 -38 -9 -41 10 -11 22 -6 22 10 0 8 4
13 9 10 5 -4 11 0 14 6 3 7 4 3 4 -10 -1 -24 -25 -36 -52 -26 -15 6 -17 3 -12
-15 3 -13 3 -20 0 -17 -10 9 -30 -19 -38 -52 -3 -17 -7 -35 -8 -38 -1 -4 -22
-26 -47 -51 -38 -38 -46 -42 -55 -29 -14 19 -36 1 -28 -22 4 -8 2 -13 -3 -10
-11 7 -35 -17 -27 -26 4 -3 -4 -6 -16 -6 -12 0 -19 -4 -16 -10 4 -6 11 -7 17
-4 7 4 8 2 4 -5 -4 -6 -11 -9 -16 -6 -4 3 -10 -2 -14 -10 -3 -8 -12 -15 -21
-15 -8 0 -15 -4 -15 -9 0 -9 -30 -24 -36 -18 -2 1 3 15 10 29 8 15 12 29 10
31 -3 2 3 10 13 18 15 12 16 12 8 -1 -5 -10 -1 -8 13 4 12 10 19 22 17 26 -6
10 25 24 44 21 7 -1 10 2 6 9 -4 7 5 16 24 23 17 6 31 17 31 24 0 7 5 13 10
13 6 0 10 5 10 10 0 6 -7 10 -16 10 -14 0 -14 1 0 16 20 20 21 38 1 30 -8 -3
-15 -1 -15 4 0 5 11 12 25 16 13 3 29 12 36 20 9 11 6 16 -14 23 -27 10 -45
31 -28 31 6 0 11 9 11 21 0 14 5 19 14 16 9 -4 13 -1 11 6 -3 7 11 22 31 35
35 23 35 24 17 42 -10 10 -22 17 -28 16 -5 0 -10 7 -10 17 0 10 -6 22 -14 26
-19 12 -6 28 31 36 17 4 45 15 62 25 17 9 36 15 42 13 6 -2 14 3 17 12 8 19
-2 47 -14 39 -5 -3 -9 0 -9 7 0 6 8 9 20 6 11 -3 25 2 32 11 10 12 10 14 1 8
-7 -4 -13 -3 -13 3 0 5 5 13 10 16 16 10 12 38 -5 31 -8 -3 -18 2 -23 11 -8
14 -10 13 -15 -1 -4 -10 -3 -15 3 -11 18 11 10 -30 -9 -47 -10 -9 -23 -24 -28
-33 -9 -15 -13 -16 -34 -4 -13 7 -27 12 -31 11 -4 -1 -4 6 -1 15 5 13 2 15
-16 10 -17 -4 -21 -1 -19 11 1 9 -1 23 -5 29 -6 9 -3 11 10 6 16 -6 16 -5 4
10 -7 9 -9 17 -4 17 6 0 21 9 34 21 20 17 21 22 9 30 -12 8 -10 10 7 6 31 -7
76 29 68 54 -4 11 -2 19 5 19 6 0 8 5 5 10 -3 6 3 10 13 10 25 0 46 25 38 45
-3 8 -9 14 -13 14 -4 -1 -16 1 -26 6 -9 4 -26 5 -38 2 -16 -4 -18 -3 -8 9 6 7
15 11 20 9 13 -9 49 28 49 50 1 18 2 18 11 3 7 -12 6 -23 -3 -38z m837 40
c-11 -5 -29 -9 -40 -9 l-20 0 20 9 c11 5 29 9 40 9 l20 0 -20 -9z m-865 -20
c0 -5 -2 -10 -4 -10 -3 0 -8 5 -11 10 -3 6 -1 10 4 10 6 0 11 -4 11 -10z m56
-30 c0 -12 -4 -16 -9 -11 -5 5 -6 14 -3 20 10 15 12 14 12 -9z m-2966 -5 c0
-8 -9 -15 -20 -15 -11 0 -20 4 -20 10 0 5 7 7 15 4 8 -4 15 -1 15 5 0 6 2 11
5 11 3 0 5 -7 5 -15z m150 -6 c0 -5 -7 -9 -15 -9 -9 0 -12 6 -9 15 6 15 24 11
24 -6z m1123 -21 c4 -33 2 -35 -14 -25 -11 7 -17 16 -14 22 3 5 8 18 11 28 9
24 12 18 17 -25z m-53 12 c-14 -11 -38 -20 -55 -19 -25 0 -27 1 -12 10 9 5 21
8 25 5 4 -2 18 2 32 10 35 19 39 17 10 -6z m2583 10 c7 -1 -1 -8 -16 -16 -31
-17 -57 -13 -57 8 0 9 3 9 10 -2 8 -12 10 -12 16 3 4 11 13 16 21 13 8 -3 20
-6 26 -6z m-4833 -14 c0 -11 -19 -15 -25 -6 -3 5 1 10 9 10 9 0 16 -2 16 -4z
m4040 0 c0 -3 -4 -8 -10 -11 -5 -3 -10 -1 -10 4 0 6 5 11 10 11 6 0 10 -2 10
-4z m-3000 -35 c-1 -14 -3 -13 -15 3 -8 11 -15 14 -15 8 0 -7 -7 -12 -15 -12
-21 0 -19 18 3 22 25 6 42 -2 42 -21z m2885 19 c3 -5 1 -10 -4 -10 -6 0 -11 5
-11 10 0 6 2 10 4 10 3 0 8 -4 11 -10z m-3000 -10 c3 -5 13 -7 23 -4 16 5 16
5 0 -5 -17 -12 -48 -5 -48 10 0 12 17 12 25 -1z m1335 6 c0 -3 -4 -8 -10 -11
-5 -3 -10 -1 -10 4 0 6 5 11 10 11 6 0 10 -2 10 -4z m-2805 -16 c3 -5 1 -10
-4 -10 -6 0 -11 5 -11 10 0 6 2 10 4 10 3 0 8 -4 11 -10z m40 -8 c-3 -3 -11 0
-18 7 -9 10 -8 11 6 5 10 -3 15 -9 12 -12z m530 2 c40 -26 6 -76 -48 -70 -33
4 -40 10 -44 39 -2 14 0 17 5 10 6 -9 14 -6 32 12 30 29 26 28 55 9z m372 -24
c1 -25 -3 -41 -10 -42 -7 0 -16 -2 -22 -3 -5 -2 -14 -3 -18 -4 -5 0 -1 -8 7
-17 9 -8 16 -23 16 -31 0 -12 -5 -10 -21 8 -11 13 -18 31 -16 41 3 10 1 21 -5
24 -5 3 -1 12 9 19 11 9 22 10 29 4 8 -7 14 -2 18 16 9 35 11 32 13 -15z m101
15 c-3 -3 -9 2 -12 12 -6 14 -5 15 5 6 7 -7 10 -15 7 -18z m647 15 c-3 -5 -14
-10 -23 -10 -13 0 -13 -2 4 -15 18 -14 18 -14 -3 -8 -26 6 -25 5 -17 27 3 9
15 16 26 16 10 0 16 -4 13 -10z m783 -15 c-6 -14 -15 -25 -19 -25 -5 0 -3 11
3 25 6 14 15 25 19 25 5 0 3 -11 -3 -25z m85 -4 c-5 -18 -22 -31 -50 -37 -23
-4 -14 12 12 24 14 6 25 19 25 27 0 9 4 14 9 11 5 -3 7 -15 4 -25z m958 -8 c5
-5 4 -14 0 -22 -7 -11 -13 -10 -36 5 -17 11 -44 17 -76 16 -41 -1 -47 1 -36
12 7 8 22 16 33 18 21 5 102 -16 115 -29z m1049 27 c0 -5 -5 -10 -11 -10 -5 0
-7 5 -4 10 3 6 8 10 11 10 2 0 4 -4 4 -10z m-3003 -15 c0 -8 -4 -12 -8 -9 -4
2 -6 -5 -4 -16 3 -16 -2 -20 -23 -21 l-27 -1 30 -8 c17 -4 22 -8 13 -9 -20 -1
-48 -28 -48 -44 0 -7 9 -1 20 13 11 14 20 20 20 13 0 -7 7 -10 18 -7 14 5 14
4 2 -4 -8 -6 -18 -8 -22 -6 -4 3 -8 0 -8 -6 0 -6 -10 -15 -22 -20 -20 -7 -20
-9 -4 -9 15 -1 16 -4 7 -15 -9 -11 -9 -15 1 -19 10 -3 10 -7 1 -17 -6 -7 -19
-10 -28 -6 -14 5 -15 9 -5 21 10 12 9 15 -4 15 -9 0 -15 -5 -13 -11 1 -6 -4
-14 -12 -17 -10 -3 -12 0 -8 10 3 9 0 21 -6 27 -14 14 6 31 38 31 15 0 16 3 7
9 -11 6 -10 11 3 25 12 12 13 16 3 16 -12 0 -48 33 -48 44 0 3 24 9 90 22 13
3 27 7 29 10 7 6 8 5 8 -11z m2878 -4 c-3 -6 -11 -11 -16 -11 -5 0 -4 6 3 14
14 16 24 13 13 -3z m-2850 -14 c-8 -13 -12 -27 -8 -30 3 -4 2 -7 -4 -7 -6 0
-14 8 -17 17 -4 10 -4 14 0 10 4 -4 13 2 21 13 20 28 27 25 8 -3z m907 -3
c-12 -8 -20 -20 -16 -25 3 -6 -2 -9 -12 -7 -12 2 -18 -2 -16 -10 1 -8 -2 -12
-8 -10 -17 5 -14 22 6 33 9 6 26 18 36 28 11 10 22 16 26 13 3 -4 -4 -13 -16
-22z m-1456 -44 c-1 -40 -4 -50 -18 -50 -10 0 -18 -4 -18 -10 0 -5 -8 -10 -17
-10 -11 0 -14 3 -7 8 6 4 14 17 18 30 4 12 12 20 17 17 5 -4 9 3 9 15 0 13 -4
19 -11 14 -8 -4 -8 0 0 15 19 35 29 24 27 -29z m4319 40 c-4 -6 -16 -8 -27 -4
-17 5 -20 3 -15 -10 7 -17 -8 -22 -18 -6 -11 17 5 30 36 30 18 0 28 -4 24 -10z
m-4223 -52 c-11 -11 -32 -3 -32 12 0 4 9 6 21 3 13 -4 17 -9 11 -15z m-576
-13 c9 -8 13 -19 9 -25 -3 -6 1 -7 9 -4 9 3 16 1 16 -5 0 -11 -14 -15 -35 -11
-5 1 0 -8 12 -19 12 -12 27 -21 33 -21 21 0 -26 -38 -55 -45 -28 -7 -29 -6
-11 7 15 12 17 18 7 36 -6 12 -16 22 -21 22 -6 0 -10 9 -10 20 0 11 5 20 11
20 6 0 9 9 6 20 -6 24 8 26 29 5z m-519 -1 c-3 -3 -12 -4 -19 -1 -8 3 -5 6 6
6 11 1 17 -2 13 -5z m1413 -4 c0 -5 -4 -10 -10 -10 -5 0 -10 5 -10 10 0 6 5
10 10 10 6 0 10 -4 10 -10z m155 -8 c0 -9 -5 -24 -9 -31 -5 -8 -9 -21 -10 -30
-1 -9 -15 -34 -33 -56 -24 -29 -31 -33 -26 -16 3 12 16 29 29 38 13 8 24 20
24 26 0 7 -4 7 -12 -1 -26 -26 -30 -10 -5 16 15 16 24 31 21 35 -4 4 -1 13 6
22 16 19 17 19 15 -3z m3086 -45 c-13 -13 -15 1 -4 30 7 17 8 17 11 -1 2 -10
-1 -23 -7 -29z m-3547 18 c-4 -8 -8 -15 -10 -15 -2 0 -4 7 -4 15 0 8 4 15 10
15 5 0 7 -7 4 -15z m520 0 c-4 -8 -8 -15 -10 -15 -2 0 -4 7 -4 15 0 8 4 15 10
15 5 0 7 -7 4 -15z m-635 -17 c-1 -13 6 -42 14 -66 9 -24 12 -40 7 -37 -6 3
-10 1 -10 -4 0 -6 5 -11 10 -11 15 0 51 40 45 50 -3 5 4 8 15 7 21 -1 26 -12
10 -22 -5 -3 -7 -12 -3 -20 3 -10 -2 -15 -16 -15 -12 0 -21 -5 -21 -11 0 -18
-29 -41 -42 -33 -8 5 -7 0 2 -11 11 -14 12 -19 3 -22 -7 -3 -13 -13 -13 -24 0
-10 -5 -19 -11 -19 -7 0 -9 -10 -7 -24 4 -19 0 -26 -19 -30 -12 -4 -23 -13
-23 -21 0 -20 -20 -19 -36 3 -20 25 -17 40 9 44 21 3 32 27 12 29 -5 0 -16 6
-23 12 -11 9 -11 13 4 24 21 15 38 17 29 3 -3 -5 1 -10 9 -10 9 0 16 5 16 12
0 6 7 19 15 28 12 14 13 23 5 45 l-10 27 -21 -24 c-17 -19 -20 -20 -15 -4 5
15 4 17 -8 7 -28 -23 -24 5 5 39 18 20 26 36 19 40 -7 4 -3 16 10 33 26 33 40
34 39 5z m147 10 c4 -7 3 -8 -4 -4 -12 7 -17 -19 -12 -54 2 -13 -1 -12 -16 1
-11 9 -26 19 -34 22 -9 3 -4 6 11 6 18 1 28 8 32 21 6 23 13 25 23 8z m-291
-20 c-4 -37 -4 -38 -15 -38 -7 0 -7 6 -2 18 5 9 7 23 5 30 -3 6 0 12 5 12 5 0
8 -10 7 -22z m295 -13 c0 -8 -4 -15 -10 -15 -5 0 -7 7 -4 15 4 8 8 15 10 15 2
0 4 -7 4 -15z m4190 0 c0 -8 -7 -15 -15 -15 -8 0 -15 -7 -15 -15 0 -7 -6 -18
-13 -22 -8 -4 -16 -16 -20 -25 -4 -12 -16 -16 -41 -15 -46 3 -46 14 2 35 20
10 50 30 66 45 33 31 36 32 36 12z m-4837 -22 c-7 -2 -19 -2 -25 0 -7 3 -2 5
12 5 14 0 19 -2 13 -5z m-498 -13 c3 -5 -3 -10 -15 -10 -12 0 -18 5 -15 10 3
6 10 10 15 10 5 0 12 -4 15 -10z m860 -28 c-8 -8 -25 10 -19 20 4 6 9 5 15 -3
4 -7 6 -15 4 -17z m275 14 c0 -3 -4 -8 -10 -11 -5 -3 -10 -1 -10 4 0 6 5 11
10 11 6 0 10 -2 10 -4z m-596 -22 c4 -10 1 -14 -6 -12 -15 5 -23 28 -10 28 5
0 13 -7 16 -16z m4766 -4 c0 -5 -5 -10 -11 -10 -5 0 -7 5 -4 10 3 6 8 10 11
10 2 0 4 -4 4 -10z m-4440 -8 c0 -5 -7 -17 -15 -28 -14 -17 -15 -18 -9 0 4 11
1 22 -7 27 -11 6 -8 9 9 9 12 0 22 -4 22 -8z m2660 4 c0 -3 -4 -8 -10 -11 -5
-3 -10 -1 -10 4 0 6 5 11 10 11 6 0 10 -2 10 -4z m-3025 -16 c3 -5 2 -10 -4
-10 -5 0 -13 5 -16 10 -3 6 -2 10 4 10 5 0 13 -4 16 -10z m80 -6 c15 -15 14
-18 -5 -36 -12 -11 -28 -17 -36 -14 -7 3 -14 1 -14 -4 0 -6 -9 -5 -20 2 -11 7
-20 16 -20 21 0 4 4 6 9 2 5 -3 21 6 35 20 30 30 30 30 51 9z m542 -9 c-15
-16 -19 -13 -11 9 3 9 10 13 15 10 5 -3 3 -11 -4 -19z m-1131 5 c9 0 13 -4 10
-9 -7 -11 -44 -3 -53 12 -4 7 0 8 11 4 10 -4 24 -7 32 -7z m4424 -20 c0 -5 -5
-10 -11 -10 -5 0 -7 5 -4 10 3 6 8 10 11 10 2 0 4 -4 4 -10z m893 -40 c-39
-43 -45 -44 -47 -8 -2 26 11 48 28 48 6 0 4 -5 -4 -10 -12 -8 -11 -10 8 -10
12 0 25 7 28 15 4 8 10 13 14 10 5 -3 -8 -23 -27 -45z m-4575 21 c3 -8 -1 -12
-9 -9 -7 2 -15 10 -17 17 -3 8 1 12 9 9 7 -2 15 -10 17 -17z m3832 -4 c0 -7
-9 -23 -20 -35 -12 -12 -17 -22 -13 -22 11 0 -20 -20 -31 -20 -5 0 0 10 11 23
11 12 26 32 32 45 13 25 21 28 21 9z m-3703 -17 c2 -19 -8 -26 -20 -14 -7 7 2
34 12 34 4 0 7 -9 8 -20z m3728 -21 c-1 -11 -6 -24 -11 -27 -5 -4 -11 -16 -12
-27 -6 -31 -23 -49 -33 -34 -10 16 37 105 57 109 0 0 0 -9 -1 -21z m567 -32
c-7 -8 -10 -16 -7 -19 3 -2 -1 -5 -9 -5 -12 0 -12 4 1 24 9 13 18 21 21 19 3
-3 0 -12 -6 -19z m189 -34 c-12 -20 -14 -14 -5 12 4 9 9 14 11 11 3 -2 0 -13
-6 -23z m-4471 3 c0 -2 -7 -7 -16 -10 -8 -3 -12 -2 -9 4 6 10 25 14 25 6z
m4410 -16 c0 -5 -5 -10 -11 -10 -5 0 -7 5 -4 10 3 6 8 10 11 10 2 0 4 -4 4
-10z m-4317 -35 c-3 -8 -9 -15 -14 -15 -10 0 -12 24 -3 33 11 11 24 -3 17 -18z
m3175 18 c-10 -2 -28 -2 -40 0 -13 2 -5 4 17 4 22 1 32 -1 23 -4z m1166 -5
c-23 -41 -47 -68 -57 -67 -13 2 -41 -7 -69 -21 -20 -11 -34 15 -15 27 32 21
60 32 67 28 4 -3 23 6 41 19 40 29 42 30 33 14z m-750 -65 c-4 -16 -16 -36
-28 -45 -17 -14 -19 -19 -8 -30 11 -11 16 -10 28 6 8 11 14 15 14 9 0 -7 -4
-14 -10 -18 -6 -4 -6 -15 0 -30 8 -20 5 -29 -12 -45 -12 -11 -25 -20 -30 -20
-11 0 -10 33 2 64 6 17 6 26 0 26 -15 0 -12 26 5 40 18 15 20 34 3 24 -6 -4
-3 5 8 19 25 34 36 34 28 0z m-3679 -8 c-3 -29 -11 -41 -18 -28 -5 8 9 53 17
53 2 0 3 -11 1 -25z m-860 -5 c-3 -5 -13 -10 -21 -10 -8 0 -12 5 -9 10 3 6 13
10 21 10 8 0 12 -4 9 -10z m4115 1 c0 -5 -8 -11 -17 -13 -12 -2 -14 -6 -6 -11
6 -4 19 0 27 9 12 11 16 12 16 2 0 -7 3 -24 7 -37 5 -21 3 -23 -15 -19 -25 7
-28 -2 -9 -21 10 -10 7 -12 -13 -9 -14 2 -24 9 -22 16 1 6 -4 12 -12 12 -7 0
-19 6 -25 14 -10 12 -8 19 7 34 28 28 62 40 62 23z m-3410 -56 c0 -24 5 -35
15 -35 8 0 15 -4 15 -9 0 -5 -7 -11 -15 -15 -26 -10 -16 -26 16 -26 31 0 32 0
25 42 -4 23 -14 50 -23 60 -15 17 -15 18 4 18 25 0 31 -13 39 -94 5 -52 4 -64
-9 -69 -11 -4 -14 -2 -10 9 4 11 -4 14 -33 15 -22 1 -43 1 -48 0 -5 -1 -6 15
-2 36 3 21 6 53 6 71 0 17 5 32 10 32 6 0 10 -16 10 -35z m4500 15 c0 -5 -5
-10 -11 -10 -5 0 -7 5 -4 10 3 6 8 10 11 10 2 0 4 -4 4 -10z m250 -11 c0 -5
-4 -9 -10 -9 -5 0 -10 7 -10 16 0 8 5 12 10 9 6 -3 10 -10 10 -16z m-470 1 c0
-5 -5 -10 -11 -10 -5 0 -7 5 -4 10 3 6 8 10 11 10 2 0 4 -4 4 -10z m-4975 -10
c-3 -5 -14 -10 -23 -9 -14 0 -13 2 3 9 27 11 27 11 20 0z m90 0 c-3 -5 -14
-10 -24 -10 -10 0 -24 -7 -31 -15 -7 -8 -16 -13 -20 -10 -5 3 -10 -1 -13 -7
-2 -7 -8 -10 -12 -5 -12 10 9 29 47 43 42 15 61 17 53 4z m645 1 c0 -5 -7 -11
-15 -15 -9 -3 -15 0 -15 9 0 8 7 15 15 15 8 0 15 -4 15 -9z m187 -18 c-3 -3
-11 -2 -17 2 -9 6 -9 10 1 16 14 8 27 -7 16 -18z m4488 17 c-3 -5 -12 -10 -18
-10 -7 0 -6 4 3 10 19 12 23 12 15 0z m-235 -14 c0 -2 -7 -6 -15 -10 -8 -3
-15 -1 -15 4 0 6 7 10 15 10 8 0 15 -2 15 -4z m-1056 -68 c6 -4 0 -8 -14 -8
l-25 -1 23 -13 c23 -12 23 -13 -17 -31 -48 -21 -59 -16 -36 18 15 24 15 26 -2
30 -15 4 -14 5 3 6 12 0 28 8 35 17 11 13 14 13 18 3 2 -8 9 -17 15 -21z
m-3276 4 c8 -5 -1 -8 -22 -8 -19 1 -32 4 -29 9 6 9 35 9 51 -1z m4562 -18 c0
-9 -7 -14 -17 -12 -25 5 -28 28 -4 28 12 0 21 -6 21 -16z m-5370 -34 c-8 -6
-22 -10 -30 -9 -9 0 -5 6 10 14 27 14 44 10 20 -5z m636 -7 c-10 -10 -19 5
-10 18 6 11 8 11 12 0 2 -7 1 -15 -2 -18z m3699 -9 c-8 -16 -15 -35 -15 -41 0
-7 -4 -13 -10 -13 -5 0 -10 -10 -10 -23 0 -13 -6 -50 -12 -83 l-13 -59 -5 90
c-5 80 -4 93 14 113 11 12 26 22 33 22 8 0 16 7 20 15 3 9 7 14 9 12 3 -2 -2
-17 -11 -33z m796 14 c11 -21 11 -22 -4 -9 -10 7 -17 17 -17 22 0 15 9 10 21
-13z m219 8 c0 -3 -4 -8 -10 -11 -5 -3 -10 -1 -10 4 0 6 5 11 10 11 6 0 10 -2
10 -4z m-250 -20 c0 -3 -4 -8 -10 -11 -5 -3 -10 -1 -10 4 0 6 5 11 10 11 6 0
10 -2 10 -4z m-5143 -12 c-3 -3 -12 -4 -19 -1 -8 3 -5 6 6 6 11 1 17 -2 13 -5z
m4106 -16 c-2 -5 -13 -8 -23 -8 -10 0 -22 -4 -25 -10 -3 -5 -13 -10 -22 -10
-14 0 -14 2 1 19 15 17 80 25 69 9z m977 -8 c0 -11 -7 -20 -15 -20 -13 0 -14
4 -5 20 6 11 13 20 15 20 3 0 5 -9 5 -20z m126 -35 c-2 -7 0 -17 6 -23 7 -7 4
-10 -8 -9 -13 1 -18 -4 -16 -16 2 -9 -2 -25 -7 -35 -9 -15 -10 -15 -11 6 0 12
-4 22 -9 22 -14 0 -4 40 15 61 18 20 39 16 30 -6z m-4303 -2 c-7 -2 -19 -2
-25 0 -7 3 -2 5 12 5 14 0 19 -2 13 -5z m3464 -75 c-3 -7 -5 -2 -5 12 0 14 2
19 5 13 2 -7 2 -19 0 -25z m-2860 -70 c-2 -18 -4 -6 -4 27 0 33 2 48 4 33 2
-15 2 -42 0 -60z m2783 47 c0 -12 -19 -12 -23 0 -4 9 -1 12 9 8 7 -3 14 -7 14
-8z m-2805 -4 c3 -5 0 -13 -6 -17 -8 -5 -9 -3 -4 6 6 10 4 12 -8 7 -10 -3 -17
-2 -17 3 0 13 27 13 35 1z m2769 -23 c-5 -7 -1 -9 9 -5 10 3 17 2 17 -3 0 -9
-14 -14 -24 -7 -2 1 -13 -6 -24 -16 -11 -10 -29 -17 -39 -15 -15 3 -13 9 16
36 30 29 61 36 45 10z m-2769 -28 c-3 -5 -10 -10 -16 -10 -5 0 -9 5 -9 10 0 6
7 10 16 10 8 0 12 -4 9 -10z m3870 0 c-3 -5 -10 -10 -16 -10 -5 0 -9 5 -9 10
0 6 7 10 16 10 8 0 12 -4 9 -10z m-915 -10 c0 -5 -4 -10 -10 -10 -5 0 -10 5
-10 10 0 6 5 10 10 10 6 0 10 -4 10 -10z m-4680 -29 c0 -6 -4 -12 -9 -15 -13
-8 -42 4 -35 15 7 12 44 12 44 0z m5449 -14 c-9 -7 -19 -22 -23 -35 -7 -22
-25 -30 -27 -12 -4 25 -3 30 6 31 6 1 19 8 30 15 24 17 36 18 14 1z m-2046
-44 c-7 -2 -19 -2 -25 0 -7 3 -2 5 12 5 14 0 19 -2 13 -5z m2193 -94 c-19 -23
-32 -47 -29 -55 4 -10 0 -12 -11 -8 -9 3 -17 1 -17 -5 -1 -6 -2 -16 -3 -23 0
-6 -8 -13 -16 -15 -9 -3 -11 -1 -5 4 6 4 11 19 13 33 1 14 11 32 22 42 11 9
20 20 20 25 0 6 44 38 58 42 2 1 -12 -17 -32 -40z m184 32 c0 -5 -7 -11 -14
-14 -10 -4 -13 -1 -9 9 6 15 23 19 23 5z m-270 -21 c-20 -13 -43 -13 -35 0 3
6 16 10 28 10 18 0 19 -2 7 -10z m-51 -22 c7 -11 7 -18 1 -18 -5 0 -10 5 -10
10 0 6 -11 10 -25 10 -14 0 -25 4 -25 8 0 16 48 8 59 -10z m-2890 -42 c12 -11
21 -23 21 -29 0 -5 -68 -8 -175 -6 l-175 4 0 26 c0 14 2 28 4 30 2 2 72 2 154
-1 129 -4 153 -8 171 -24z m794 -38 c25 -16 57 -8 72 20 l15 27 -2 -25 c-2
-16 -13 -30 -31 -38 -51 -25 -95 11 -80 65 8 28 8 28 11 -7 2 -19 9 -38 15
-42z m33 37 c0 -22 -5 -35 -13 -35 -10 0 -11 8 -7 28 13 52 20 55 20 7z m-338
3 l224 -12 20 -29 21 -29 -49 6 c-27 3 -139 8 -249 11 -110 3 -221 8 -246 11
l-45 5 25 30 c19 22 32 28 51 25 14 -3 125 -11 248 -18z m359 -15 c-3 -10 -5
-4 -5 12 0 17 2 24 5 18 2 -7 2 -21 0 -30z m2103 33 c0 -3 -4 -8 -10 -11 -5
-3 -10 -1 -10 4 0 6 5 11 10 11 6 0 10 -2 10 -4z m251 -67 c-19 -44 -72 -89
-106 -89 -9 0 -13 -4 -10 -10 3 -5 -2 -10 -12 -10 -13 0 -4 13 31 43 27 23 60
54 75 68 31 30 35 30 22 -2z m-210 -8 c-7 -5 -11 -13 -7 -19 3 -6 2 -13 -2
-16 -5 -3 -8 5 -7 17 3 28 3 27 18 27 9 0 8 -3 -2 -9z m114 -21 c-3 -5 -12
-10 -18 -10 -7 0 -6 4 3 10 19 12 23 12 15 0z m-356 -31 c-11 -11 -23 -18 -26
-15 -9 8 17 36 33 36 10 0 7 -7 -7 -21z m41 -9 c-6 -11 -14 -19 -18 -19 -22 4
-32 -3 -32 -20 0 -14 -10 -21 -32 -26 -18 -4 -38 -11 -44 -16 -7 -6 -21 -5
-35 0 -13 5 -19 10 -14 11 6 0 3 5 -5 10 -12 8 -11 10 7 10 12 0 24 6 26 13 4
7 8 3 12 -10 6 -18 11 -21 25 -13 9 5 20 7 23 4 3 -3 8 -1 12 5 3 6 1 11 -4
11 -6 0 -11 5 -11 10 0 6 8 10 19 10 10 0 24 7 31 15 7 8 16 13 20 10 5 -3 11
-1 15 5 11 19 16 10 5 -10z m-4050 0 c0 -5 -2 -10 -4 -10 -3 0 -8 5 -11 10 -3
6 -1 10 4 10 6 0 11 -4 11 -10z m40 0 c0 -5 -4 -10 -9 -10 -6 0 -13 5 -16 10
-3 6 1 10 9 10 9 0 16 -4 16 -10z m4020 -25 c-18 -19 -36 -32 -39 -30 -4 5 58
64 68 65 3 0 -10 -16 -29 -35z m-440 14 c8 -1 -5 -5 -30 -8 -25 -4 -49 -5 -54
-2 -15 7 27 21 49 16 11 -3 27 -5 35 -6z m-3337 -6 c-7 -2 -21 -2 -30 0 -10 3
-4 5 12 5 17 0 24 -2 18 -5z m-393 -28 c-7 -8 -17 -15 -23 -15 -6 0 -2 7 9 15
25 19 30 19 14 0z m600 -19 c0 -3 -4 -8 -10 -11 -5 -3 -10 -1 -10 4 0 6 5 11
10 11 6 0 10 -2 10 -4z m120 0 c0 -2 -7 -7 -16 -10 -8 -3 -12 -2 -9 4 6 10 25
14 25 6z m2835 -15 c-3 -6 -11 -11 -16 -11 -5 0 -4 6 3 14 14 16 24 13 13 -3z
m595 0 c0 -9 -41 -23 -49 -16 -3 4 28 20 47 24 1 1 2 -3 2 -8z m-3106 -9 c2
-4 -4 -8 -14 -8 -10 0 -16 4 -14 8 3 4 9 8 14 8 5 0 11 -4 14 -8z m2946 -37
c-7 -9 -15 -13 -19 -10 -3 3 1 10 9 15 21 14 24 12 10 -5z m80 2 c0 -2 -12
-14 -27 -28 l-28 -24 24 28 c23 25 31 32 31 24z m-3380 -17 c0 -5 -4 -10 -10
-10 -5 0 -10 5 -10 10 0 6 5 10 10 10 6 0 10 -4 10 -10z m-45 -10 c-3 -5 -12
-10 -18 -10 -7 0 -6 4 3 10 19 12 23 12 15 0z m2998 -30 c7 -1 -3 -7 -22 -15
-18 -8 -43 -14 -55 -14 -16 1 -13 3 9 9 17 4 23 8 15 9 -13 1 -13 2 0 11 8 5
21 8 28 5 8 -3 19 -5 25 -5z m-2389 -6 c9 -3 16 -12 16 -20 0 -11 -4 -12 -19
-2 -15 9 -23 9 -35 -1 -9 -8 -16 -18 -16 -24 0 -5 -10 -25 -21 -44 -15 -23
-24 -31 -29 -23 -5 9 -9 9 -14 1 -4 -6 -13 -11 -19 -11 -7 0 3 12 21 26 18 14
30 29 28 33 -6 9 49 71 63 71 5 0 16 -3 25 -6z m2516 -8 c0 -2 -7 -7 -16 -10
-8 -3 -12 -2 -9 4 6 10 25 14 25 6z m-2015 -16 c-3 -5 -11 -10 -16 -10 -6 0
-7 5 -4 10 3 6 11 10 16 10 6 0 7 -4 4 -10z m2198 -25 c-10 -13 -22 -25 -27
-25 -5 0 1 11 14 25 30 32 36 32 13 0z m355 -30 c-12 -14 -27 -25 -34 -25 -7
0 -16 -4 -19 -10 -4 -6 1 -7 12 -4 15 5 16 4 3 -5 -8 -6 -23 -11 -32 -11 -10
0 -18 -3 -18 -8 0 -4 -10 -13 -22 -21 l-21 -13 22 28 c24 30 91 79 91 67 0 -4
5 0 11 10 5 9 14 17 19 17 6 0 0 -11 -12 -25z m-1308 -1 c0 -2 -9 -4 -21 -4
-11 0 -18 4 -14 10 5 8 35 3 35 -6z m-287 -1 c-7 -2 -19 -2 -25 0 -7 3 -2 5
12 5 14 0 19 -2 13 -5z m647 -7 c0 -2 -7 -7 -16 -10 -8 -3 -12 -2 -9 4 6 10
25 14 25 6z m850 0 c0 -2 -8 -10 -17 -17 -16 -13 -17 -12 -4 4 13 16 21 21 21
13z m-2870 -20 c0 -2 -7 -6 -15 -10 -8 -3 -15 -1 -15 4 0 6 7 10 15 10 8 0 15
-2 15 -4z m2840 -31 c-14 -8 -32 -14 -40 -14 -9 0 -4 6 10 14 14 8 32 14 40
14 9 0 4 -6 -10 -14z m144 -7 c-3 -5 -10 -6 -15 -3 -5 4 -9 1 -9 -4 0 -6 -5
-11 -11 -11 -8 0 -8 4 0 13 12 15 44 19 35 5z m-3074 -23 c-7 -8 -17 -15 -22
-15 -6 0 -5 7 2 15 7 8 17 15 22 15 6 0 5 -7 -2 -15z m-73 -31 c-3 -3 -12 -4
-19 -1 -8 3 -5 6 6 6 11 1 17 -2 13 -5z m2993 -38 c0 -2 -7 -7 -16 -10 -8 -3
-12 -2 -9 4 6 10 25 14 25 6z m8 -113 c-10 -2 -26 -2 -35 0 -10 3 -2 5 17 5
19 0 27 -2 18 -5z m-1706 -15 c-9 -9 -15 -9 -24 0 -9 9 -7 12 12 12 19 0 21
-3 12 -12z m1628 -5 c-14 -9 -31 -23 -38 -30 -8 -7 -23 -18 -35 -24 -12 -6 -2
7 23 30 25 22 52 40 60 41 9 0 4 -7 -10 -17z m-3713 -59 c47 -9 99 -30 108
-44 8 -12 0 -13 -23 -1 -63 32 -132 51 -164 45 -21 -4 -22 -4 -3 5 11 5 25 8
32 6 6 -2 29 -7 50 -11z m3560 -19 c0 -8 -4 -12 -9 -9 -5 3 -6 10 -3 15 9 13
12 11 12 -6z m-1827 -65 c0 -5 -4 -10 -10 -10 -5 0 -10 5 -10 10 0 6 5 10 10
10 6 0 10 -4 10 -10z m1899 -13 c-68 -46 -151 -97 -159 -97 -5 0 -10 -4 -10
-9 0 -5 -8 -12 -17 -15 -17 -6 -4 7 58 59 32 26 122 75 128 69 2 -2 2 -5 0 -7z
m-4059 -137 c8 -5 11 -10 5 -10 -5 0 -17 5 -25 10 -8 5 -10 10 -5 10 6 0 17
-5 25 -10z m4237 4 c-4 -4 -38 -12 -77 -19 -39 -7 -68 -9 -63 -4 4 4 35 12 68
17 82 13 79 13 72 6z m-4162 -24 c-3 -5 -11 -10 -16 -10 -6 0 -7 5 -4 10 3 6
11 10 16 10 6 0 7 -4 4 -10z m32 -16 c-3 -3 -12 -4 -19 -1 -8 3 -5 6 6 6 11 1
17 -2 13 -5z m53 -30 c0 -2 -9 0 -20 6 -11 6 -20 13 -20 16 0 2 9 0 20 -6 11
-6 20 -13 20 -16z m60 -41 c0 -7 -39 17 -46 28 -3 6 5 3 20 -6 14 -10 26 -19
26 -22z m4391 -432 c-75 -93 -282 -273 -297 -258 -3 3 7 17 23 31 15 14 24 26
18 26 -5 0 -22 -12 -38 -27 -23 -23 -27 -24 -21 -8 7 18 6 19 -12 6 -10 -8 -8
-3 6 11 14 14 27 24 29 22 2 -1 14 11 28 27 45 53 245 207 269 207 l24 0 -29
-37z m-2945 -21 c-2 -22 -8 -46 -15 -54 -6 -8 -11 -18 -10 -22 4 -22 -2 -35
-13 -28 -8 5 -9 2 -5 -10 6 -14 3 -16 -14 -11 -14 5 -19 3 -18 -7 2 -7 -4 -27
-14 -44 -17 -33 -16 -96 3 -102 5 -2 10 -8 10 -13 0 -6 -4 -7 -10 -4 -5 3 -10
1 -10 -4 0 -6 7 -11 16 -11 14 0 14 -3 4 -15 -11 -13 -10 -14 2 -10 15 6 19
-30 5 -52 -5 -8 -4 -13 2 -13 6 0 11 -9 11 -19 0 -11 5 -23 11 -27 8 -4 8 -8
0 -13 -7 -5 -6 -16 4 -35 17 -33 18 -39 6 -32 -5 3 -12 -10 -15 -29 -4 -19
-11 -35 -15 -35 -8 0 -23 33 -25 57 -1 6 -5 15 -9 19 -4 4 -7 15 -7 25 0 9 -5
19 -10 21 -6 2 -12 14 -14 28 -5 36 -18 83 -26 95 -4 6 -8 17 -8 25 0 8 -3 26
-6 40 -6 22 -7 49 -6 139 0 31 -8 40 -20 21 -9 -15 -20 -10 -24 12 -2 7 -6 20
-9 28 -13 35 -14 60 -3 68 20 16 99 32 163 35 35 1 63 5 63 10 0 4 2 7 5 7 3
0 3 -18 1 -40z m-188 -175 c-3 -3 -9 2 -12 12 -6 14 -5 15 5 6 7 -7 10 -15 7
-18z m-341 -47 c-3 -8 -6 -5 -6 6 -1 11 2 17 5 13 3 -3 4 -12 1 -19z m208 13
c-3 -5 -1 -12 5 -16 12 -8 13 -25 1 -25 -10 0 -21 36 -13 44 9 9 14 7 7 -3z
m289 -24 c7 -6 6 -7 -4 -4 -8 2 -16 12 -17 23 -2 13 -1 15 4 4 3 -8 11 -19 17
-23z m-164 -22 c0 -3 -12 -5 -27 -4 -16 0 -22 3 -15 6 6 2 9 9 6 15 -4 6 2 5
15 -1 11 -7 21 -14 21 -16z m-326 -7 c-3 -10 0 -18 6 -18 6 0 9 -4 5 -10 -3
-5 -11 -7 -18 -4 -16 6 -16 51 1 51 7 0 10 -7 6 -19z m3146 18 c0 -3 -4 -8
-10 -11 -5 -3 -10 -1 -10 4 0 6 5 11 10 11 6 0 10 -2 10 -4z m-3305 -27 c5
-14 1 -25 -11 -33 -15 -12 -15 -13 7 -12 14 1 24 -5 25 -14 0 -8 2 -19 4 -25
1 -5 3 -14 4 -20 4 -27 18 -55 28 -55 7 0 7 -5 -1 -14 -8 -9 -8 -22 -2 -38 5
-15 6 -30 0 -39 -12 -19 -11 -32 1 -24 6 3 7 -1 4 -9 -5 -14 -8 -14 -21 -1 -8
8 -12 19 -9 24 3 5 -1 14 -9 21 -13 11 -13 14 1 25 15 11 15 13 -6 28 -12 8
-20 21 -18 29 3 7 -1 19 -9 26 -16 16 -17 36 -2 26 8 -5 8 -1 0 13 -15 30 -21
73 -9 73 6 0 8 9 5 20 -7 27 10 26 18 -1z m392 -14 c8 -19 8 -23 0 -19 -9 5
-9 4 -1 -5 19 -21 57 -9 64 19 5 22 7 23 13 7 4 -10 7 -28 7 -40 0 -18 -2 -19
-10 -7 -8 13 -10 12 -10 -2 0 -10 5 -18 11 -18 6 0 9 -7 5 -15 -3 -8 0 -15 6
-15 6 0 9 -2 6 -6 -3 -3 -2 -22 3 -42 5 -25 4 -39 -4 -44 -9 -6 -9 -8 0 -8 6
0 11 -9 10 -19 0 -11 -6 -17 -14 -14 -7 3 -13 0 -13 -6 0 -6 8 -11 17 -11 13
0 14 -3 6 -11 -6 -6 -9 -18 -6 -25 3 -9 -2 -14 -13 -14 -9 0 -14 3 -11 7 4 3
0 17 -8 30 -9 14 -11 23 -5 23 7 0 8 5 3 13 -8 12 -14 68 -13 125 0 17 -4 32
-10 32 -6 0 -8 5 -5 10 3 6 2 10 -4 10 -6 0 -8 -27 -6 -66 2 -59 0 -68 -22
-91 l-26 -25 5 26 c3 15 0 27 -8 30 -8 3 -14 10 -14 16 0 6 3 9 8 6 4 -2 7 10
6 27 -4 76 -6 123 -5 135 2 21 25 13 38 -13z m-97 1 c0 -2 -7 -6 -15 -10 -8
-3 -15 -1 -15 4 0 6 7 10 15 10 8 0 15 -2 15 -4z m150 -17 c0 -5 -4 -9 -8 -9
-5 0 -9 7 -9 15 0 8 4 12 9 9 4 -3 8 -9 8 -15z m-269 -20 c2 -14 5 -22 17 -52
7 -16 12 -36 12 -45 0 -15 -2 -15 -10 -2 -5 8 -10 10 -10 4 0 -6 3 -14 7 -18
14 -14 12 -38 -4 -32 -8 3 -21 6 -29 6 -8 0 -14 5 -14 10 0 6 7 10 15 10 20 0
19 12 -4 36 -13 14 -16 26 -10 37 6 10 5 20 -4 29 -8 7 -12 18 -10 25 4 12 42
6 44 -8z m122 -9 c3 -11 1 -18 -4 -14 -5 3 -9 12 -9 20 0 20 7 17 13 -6z
m2757 -90 c-35 -24 -54 -31 -30 -11 14 11 30 21 35 21 6 0 3 -5 -5 -10z
m-2654 -75 c-3 -10 1 -15 12 -16 15 -1 15 -2 -1 -6 -11 -3 -16 -11 -13 -19 3
-8 1 -14 -4 -14 -11 0 -14 53 -3 63 11 12 15 8 9 -8z m44 -65 c0 -5 -7 -7 -15
-4 -8 4 -15 8 -15 10 0 2 7 4 15 4 8 0 15 -4 15 -10z m540 -55 c11 -13 10 -14
-4 -9 -9 3 -16 10 -16 15 0 13 6 11 20 -6z m2045 5 c-3 -5 -12 -10 -18 -10 -7
0 -6 4 3 10 19 12 23 12 15 0z"/>
<path d="M9364 5962 c3 -6 -3 -16 -14 -22 -23 -12 -27 -32 -5 -24 23 9 38 41
23 50 -7 4 -8 3 -4 -4z"/>
<path d="M8898 4673 c7 -3 16 -2 19 1 4 3 -2 6 -13 5 -11 0 -14 -3 -6 -6z"/>
<path d="M8890 4584 c0 -8 5 -12 10 -9 6 3 10 10 10 16 0 5 -4 9 -10 9 -5 0
-10 -7 -10 -16z"/>
<path d="M8845 4500 c-3 -5 -1 -10 4 -10 6 0 11 5 11 10 0 6 -2 10 -4 10 -3 0
-8 -4 -11 -10z"/>
<path d="M8866 4155 c4 -8 7 -15 9 -15 2 0 5 7 9 15 3 9 0 15 -9 15 -9 0 -12
-6 -9 -15z"/>
<path d="M6377 3778 c-2 -7 0 -23 4 -35 5 -14 4 -23 -4 -26 -7 -2 -5 -3 3 -3
10 1 16 14 18 39 3 35 -11 52 -21 25z"/>
<path d="M6426 3744 c-6 -15 -4 -15 11 -3 10 7 20 15 22 16 2 2 -3 3 -11 3 -9
0 -19 -7 -22 -16z"/>
<path d="M8795 3749 c-4 -6 -5 -12 -2 -15 2 -3 7 2 10 11 7 17 1 20 -8 4z"/>
<path d="M8921 3704 c0 -11 3 -14 6 -6 3 7 2 16 -1 19 -3 4 -6 -2 -5 -13z"/>
<path d="M6210 3594 c0 -14 3 -14 15 -4 8 7 15 14 15 16 0 2 -7 4 -15 4 -8 0
-15 -7 -15 -16z"/>
<path d="M8730 3446 c0 -9 5 -16 10 -16 6 0 10 4 10 9 0 6 -4 13 -10 16 -5 3
-10 -1 -10 -9z"/>
<path d="M8567 3329 c7 -7 15 -10 18 -7 3 3 -2 9 -12 12 -14 6 -15 5 -6 -5z"/>
<path d="M6448 3311 c-178 -6 -193 -11 -203 -59 -2 -14 2 -23 15 -27 21 -7
802 4 809 11 2 2 -16 4 -42 4 -38 0 -49 4 -65 28 -11 15 -20 32 -21 37 -1 12
-240 14 -493 6z"/>
<path d="M7146 3285 c9 -22 19 -44 23 -48 5 -4 54 -5 110 -1 56 4 98 10 94 14
-19 16 -127 40 -134 29 -5 -8 -13 -8 -28 0 -12 7 -26 9 -33 5 -6 -4 -19 4 -29
17 -19 24 -19 24 -3 -16z"/>
<path d="M8700 3270 c0 -5 5 -10 11 -10 5 0 7 5 4 10 -3 6 -8 10 -11 10 -2 0
-4 -4 -4 -10z"/>
<path d="M8515 3252 c-12 -8 -46 -75 -41 -80 9 -9 36 13 46 38 13 32 11 53 -5
42z"/>
<path d="M7253 3212 c-35 -2 -63 -6 -63 -10 0 -4 9 -34 19 -67 l19 -60 101 0
c79 0 104 -3 111 -15 8 -12 10 -11 10 6 0 40 -23 136 -34 139 -21 7 -102 10
-163 7z"/>
<path d="M5910 3094 l0 -119 85 3 c80 3 85 5 85 25 0 15 3 18 8 9 5 -7 29 -14
53 -16 24 -1 51 -5 59 -9 8 -3 26 -8 40 -10 14 -2 -11 -5 -55 -6 -44 -2 -100
-6 -125 -10 -42 -8 52 -12 337 -15 l62 -1 6 60 c3 33 7 80 8 105 2 25 4 -2 5
-58 l2 -104 89 4 c49 1 92 6 95 9 4 3 7 57 9 120 l2 114 -92 3 c-81 2 -92 1
-96 -15 -4 -17 -5 -17 -6 0 -1 16 -20 17 -248 17 -137 0 -265 3 -285 6 l-38 7
0 -119z"/>
<path d="M6962 3202 l-203 -2 3 -118 3 -117 117 -3 c139 -3 165 6 206 73 26
43 45 55 89 55 20 0 22 4 16 33 -3 17 -11 43 -17 57 l-11 25 -203 -3z"/>
<path d="M5815 3188 c-20 -54 -45 -144 -45 -159 0 -20 6 -22 55 -19 65 3 65 3
65 101 l0 89 -35 0 c-20 0 -38 -6 -40 -12z"/>
<path d="M8497 3163 c-4 -3 -7 -11 -7 -17 0 -6 5 -5 12 2 6 6 9 14 7 17 -3 3
-9 2 -12 -2z"/>
<path d="M4580 3088 c0 -27 11 -48 26 -48 19 0 17 10 -6 40 -15 19 -20 21 -20
8z"/>
<path d="M8410 3085 c-7 -9 -8 -15 -2 -15 5 0 12 7 16 15 3 8 4 15 2 15 -2 0
-9 -7 -16 -15z"/>
<path d="M4477 2995 c-9 -19 -17 -42 -17 -50 0 -8 -4 -15 -10 -15 -5 0 -10 -4
-10 -10 0 -23 30 -8 36 18 3 15 10 37 16 49 6 11 9 26 6 33 -2 6 -11 -5 -21
-25z"/>
<path d="M8710 3011 c0 -5 5 -13 10 -16 6 -3 10 -2 10 4 0 5 -4 13 -10 16 -5
3 -10 2 -10 -4z"/>
<path d="M7362 2979 c2 -6 7 -10 11 -10 4 1 14 1 22 1 8 0 15 5 15 10 0 6 -12
10 -26 10 -14 0 -24 -5 -22 -11z"/>
<path d="M4589 2920 c-1 -19 -2 -45 -2 -57 1 -15 -3 -20 -13 -16 -8 3 -14 1
-14 -5 0 -5 8 -12 18 -16 9 -3 23 -9 30 -12 10 -5 9 2 -3 26 -10 19 -13 36 -7
43 4 7 5 26 1 42 l-7 30 -3 -35z"/>
<path d="M7408 2913 c12 -2 32 -2 45 0 12 2 2 4 -23 4 -25 0 -35 -2 -22 -4z"/>
<path d="M8700 2895 c0 -2 10 -10 23 -16 20 -11 21 -11 8 4 -13 16 -31 23 -31
12z"/>
<path d="M8635 2879 c-4 -6 -4 -13 -1 -16 3 -3 0 -15 -6 -27 -7 -11 -11 -25
-10 -30 2 -5 -3 -13 -10 -17 -9 -6 -6 -9 10 -9 13 0 21 4 17 9 -3 5 -1 12 4
15 5 3 12 -4 15 -17 6 -20 7 -21 20 -5 9 12 16 14 23 7 7 -7 15 -6 25 5 12 11
18 12 28 3 10 -10 11 -7 5 11 -4 13 -2 22 4 22 6 0 11 -10 12 -22 0 -13 3 -17
6 -10 2 6 11 12 19 12 9 0 12 5 9 10 -4 6 -11 8 -16 5 -5 -4 -9 -1 -9 5 0 7 7
10 15 6 8 -3 15 0 15 7 0 7 -14 18 -30 24 -29 11 -31 10 -24 -10 3 -12 3 -19
-1 -15 -5 4 -14 3 -22 -3 -10 -9 -13 -7 -13 10 0 22 -14 28 -25 11 -3 -5 -1
-10 4 -10 6 0 11 -4 11 -10 0 -14 -47 -13 -56 1 -3 6 -1 15 6 19 7 4 9 13 6
19 -9 14 -23 14 -31 0z"/>
<path d="M4631 2864 c0 -11 3 -14 6 -6 3 7 2 16 -1 19 -3 4 -6 -2 -5 -13z"/>
<path d="M7472 2825 c-1 -27 -5 -61 -8 -75 -5 -21 -4 -22 6 -7 6 9 9 43 7 75
l-3 57 -2 -50z"/>
<path d="M6470 2790 l0 -60 163 0 c89 0 178 -3 197 -6 34 -6 35 -5 53 42 9 26
15 45 11 41 -4 -3 -16 0 -28 8 -14 10 -49 15 -106 16 -60 1 -76 4 -55 9 19 5
-20 8 -102 9 l-133 1 0 -60z m153 43 c-7 -2 -19 -2 -25 0 -7 3 -2 5 12 5 14 0
19 -2 13 -5z"/>
<path d="M8820 2831 c0 -5 5 -13 10 -16 6 -3 10 -2 10 4 0 5 -4 13 -10 16 -5
3 -10 2 -10 -4z"/>
<path d="M7351 2814 c0 -11 3 -14 6 -6 3 7 2 16 -1 19 -3 4 -6 -2 -5 -13z"/>
<path d="M5351 2734 c0 -11 3 -14 6 -6 3 7 2 16 -1 19 -3 4 -6 -2 -5 -13z"/>
<path d="M8840 2681 c0 -5 -8 -12 -17 -14 -16 -4 -16 -5 0 -6 15 -1 11 -9 -20
-38 -38 -37 -39 -38 -15 -40 19 -1 22 1 11 9 -10 7 -7 8 12 4 19 -4 29 -1 33
9 3 8 1 15 -5 15 -6 0 -7 5 -4 10 4 6 10 8 15 5 5 -3 14 4 20 16 8 15 9 19 1
15 -6 -4 -11 0 -11 8 0 9 -4 16 -10 16 -5 0 -10 -4 -10 -9z"/>
<path d="M4730 2559 c0 -5 5 -7 10 -4 6 3 10 8 10 11 0 2 -4 4 -10 4 -5 0 -10
-5 -10 -11z"/>
<path d="M8751 2526 c-9 -11 -9 -16 1 -22 7 -4 10 -4 6 1 -4 4 -3 14 3 22 6 7
9 13 6 13 -2 0 -10 -6 -16 -14z"/>
<path d="M8590 2491 c0 -6 5 -13 10 -16 6 -3 10 1 10 9 0 9 -4 16 -10 16 -5 0
-10 -4 -10 -9z"/>
<path d="M8706 2491 c-19 -7 -19 -8 1 -13 14 -4 24 0 27 8 6 15 1 16 -28 5z"/>
<path d="M8675 2450 c-4 -6 1 -7 12 -4 16 5 16 4 -1 -10 -28 -23 -13 -31 19
-10 20 13 23 19 13 25 -18 12 -36 11 -43 -1z"/>
<path d="M7250 2299 c0 -5 5 -7 10 -4 6 3 10 8 10 11 0 2 -4 4 -10 4 -5 0 -10
-5 -10 -11z"/>
<path d="M7553 2285 c0 -9 10 -15 25 -15 21 0 22 2 12 15 -7 8 -18 15 -25 15
-6 0 -12 -7 -12 -15z"/>
<path d="M4260 4130 c0 -5 5 -10 10 -10 6 0 10 5 10 10 0 6 -4 10 -10 10 -5 0
-10 -4 -10 -10z"/>
<path d="M8200 3703 c-7 -12 -13 -14 -16 -7 -7 17 -46 4 -40 -12 3 -8 0 -14
-6 -14 -9 0 -9 -3 0 -12 10 -10 15 -10 21 0 5 8 10 12 12 11 8 -6 36 17 42 34
3 9 4 17 2 17 -2 0 -9 -8 -15 -17z"/>
<path d="M8170 3460 c-13 -8 -12 -10 3 -10 9 0 17 5 17 10 0 12 -1 12 -20 0z"/>
<path d="M8095 3170 c-3 -5 -1 -10 4 -10 6 0 11 5 11 10 0 6 -2 10 -4 10 -3 0
-8 -4 -11 -10z"/>
<path d="M4670 3830 c0 -5 5 -10 11 -10 5 0 7 5 4 10 -3 6 -8 10 -11 10 -2 0
-4 -4 -4 -10z"/>
<path d="M8341 3212 c-17 -31 -13 -40 5 -14 9 13 14 26 11 29 -3 2 -10 -4 -16
-15z"/>
<path d="M9289 1113 c-13 -16 -12 -17 4 -4 16 13 21 21 13 21 -2 0 -10 -8 -17
-17z"/>
<path d="M2970 7160 c0 -5 7 -7 15 -4 8 4 15 8 15 10 0 2 -7 4 -15 4 -8 0 -15
-4 -15 -10z"/>
<path d="M3145 6998 c3 -12 10 -25 17 -30 9 -5 8 -8 -6 -8 -16 0 -17 -2 -5
-17 10 -11 10 -14 2 -9 -19 11 -16 -20 4 -52 17 -26 17 -26 0 -13 -9 7 -17 9
-17 4 0 -14 23 -33 40 -33 9 0 17 -7 17 -15 0 -18 -9 -19 -25 -3 -6 6 -14 10
-16 7 -3 -2 7 -15 22 -29 14 -14 22 -18 18 -10 -6 12 -5 11 6 -1 7 -9 19 -14
27 -11 8 3 11 0 7 -7 -5 -7 1 -11 14 -11 13 0 19 4 14 11 -4 7 1 7 16 -1 20
-11 22 -10 17 4 -6 16 3 20 33 16 8 -1 12 2 7 6 -11 12 -101 13 -108 2 -4 -6
-10 0 -14 12 -5 15 -2 25 6 31 9 6 10 9 2 9 -6 0 -18 14 -27 30 -8 17 -10 28
-5 25 14 -9 11 3 -7 30 -9 14 -13 25 -9 25 5 0 0 9 -9 19 -13 14 -14 20 -5 23
9 3 8 6 -3 11 -13 4 -16 1 -13 -15z"/>
<path d="M3180 6986 c0 -2 8 -10 18 -17 15 -13 16 -12 3 4 -13 16 -21 21 -21
13z"/>
<path d="M3230 6900 c0 -5 5 -10 11 -10 5 0 7 5 4 10 -3 6 -8 10 -11 10 -2 0
-4 -4 -4 -10z"/>
<path d="M3310 6875 c13 -14 26 -25 28 -25 3 0 -5 11 -18 25 -13 14 -26 25
-28 25 -3 0 5 -11 18 -25z"/>
<path d="M2957 6765 c-9 -19 -13 -35 -7 -35 12 0 24 20 28 48 4 31 -2 28 -21
-13z"/>
<path d="M4820 6761 c0 -22 4 -43 10 -46 6 -3 7 1 4 12 -5 17 -5 17 6 0 6 -9
8 -22 5 -27 -3 -6 -2 -10 4 -10 5 0 12 14 16 30 6 25 9 29 21 19 7 -6 11 -15
8 -20 -3 -5 3 -9 12 -9 13 0 6 12 -26 45 -24 25 -48 45 -52 45 -4 0 -8 -18 -8
-39z"/>
<path d="M5227 6707 c-3 -12 -8 -33 -12 -47 -5 -17 -4 -21 3 -12 9 13 12 -6
15 -85 1 -36 17 -46 17 -11 0 12 3 19 6 16 3 -4 14 1 23 10 13 12 15 22 9 35
-5 9 -6 22 -3 27 3 5 1 11 -5 15 -5 3 -10 1 -10 -6 0 -7 -2 -10 -5 -7 -9 8 6
38 16 32 15 -9 10 3 -8 17 -11 10 -14 10 -9 2 4 -7 2 -13 -3 -13 -6 0 -11 9
-11 19 0 29 -17 35 -23 8z"/>
<path d="M4873 6695 c0 -8 4 -12 9 -9 5 3 6 10 3 15 -9 13 -12 11 -12 -6z"/>
<path d="M2839 6675 c-14 -8 -34 -26 -44 -41 -20 -32 1 -22 28 13 10 13 22 21
27 18 5 -3 12 0 15 6 11 17 2 18 -26 4z"/>
<path d="M4821 6674 c0 -11 3 -14 6 -6 3 7 2 16 -1 19 -3 4 -6 -2 -5 -13z"/>
<path d="M4865 6660 c-3 -5 -1 -18 4 -27 8 -15 11 -15 12 -3 1 8 1 18 0 23 -2
12 9 8 31 -12 12 -12 18 -26 14 -36 -3 -10 -2 -14 5 -10 17 11 5 49 -20 63
-28 15 -38 15 -46 2z"/>
<path d="M5193 6599 c0 -29 1 -30 14 -13 14 20 13 36 -3 41 -6 2 -11 -11 -11
-28z"/>
<path d="M4700 6585 c0 -8 2 -15 4 -15 2 0 6 7 10 15 3 8 1 15 -4 15 -6 0 -10
-7 -10 -15z"/>
<path d="M5462 6583 c2 -10 8 -22 13 -26 6 -6 6 -10 -2 -14 -18 -7 -16 -24 1
-17 11 4 13 0 9 -15 -4 -17 -2 -20 11 -15 9 3 16 1 16 -6 0 -17 17 -3 23 20 6
22 -22 64 -54 81 -17 9 -20 7 -17 -8z"/>
<path d="M4926 6572 c-4 -7 -4 -12 1 -12 4 0 3 -4 -3 -8 -6 -4 -18 -22 -27
-41 -14 -28 -14 -31 -1 -20 20 17 46 68 41 82 -2 8 -5 8 -11 -1z"/>
<path d="M1234 6522 c5 -8 -1 -12 -16 -13 -18 -1 -19 -2 -4 -6 23 -6 43 12 25
22 -8 5 -10 4 -5 -3z"/>
<path d="M1485 6480 c3 -5 16 -10 28 -9 21 0 21 1 2 9 -28 12 -37 12 -30 0z"/>
<path d="M5255 6460 c3 -5 8 -10 11 -10 2 0 4 5 4 10 0 6 -5 10 -11 10 -5 0
-7 -4 -4 -10z"/>
<path d="M7361 6444 c0 -11 3 -14 6 -6 3 7 2 16 -1 19 -3 4 -6 -2 -5 -13z"/>
<path d="M7341 6390 c-5 -17 -17 -33 -24 -36 -9 -3 -13 -13 -10 -25 3 -10 0
-19 -6 -19 -6 0 -11 -4 -11 -10 0 -22 17 -7 48 43 28 46 32 49 28 22 -2 -16
-5 -32 -6 -35 -1 -3 -2 -9 -1 -13 1 -5 -3 -6 -8 -2 -6 3 -15 -3 -21 -14 -9
-18 -8 -20 7 -14 17 7 17 6 1 -18 -13 -21 -14 -26 -2 -26 8 0 14 4 14 9 0 4 5
8 10 8 16 0 11 -18 -11 -38 -19 -18 -19 -21 -4 -36 21 -21 20 -21 23 14 1 17
11 44 22 62 12 20 15 35 9 38 -6 5 -6 16 1 35 8 21 8 36 -1 57 -15 37 -44 36
-58 -2z m49 -100 c0 -5 -7 -10 -16 -10 -8 0 -12 5 -9 10 3 6 10 10 16 10 5 0
9 -4 9 -10z m-30 -90 c0 -5 -2 -10 -4 -10 -3 0 -8 5 -11 10 -3 6 -1 10 4 10 6
0 11 -4 11 -10z"/>
<path d="M7442 6371 c-8 -4 -14 -12 -15 -17 -1 -5 -5 -8 -9 -6 -5 1 -8 -8 -7
-20 0 -13 3 -17 6 -9 5 11 7 11 15 0 8 -11 9 -10 5 3 -6 18 15 42 27 31 4 -4
4 0 0 10 -3 9 -7 17 -8 17 0 0 -7 -4 -14 -9z"/>
<path d="M7510 6329 c0 -7 -9 -9 -22 -6 -19 5 -26 -1 -43 -36 -10 -23 -27 -53
-36 -68 -12 -17 -15 -29 -8 -40 8 -11 9 -10 7 5 -2 10 3 21 10 24 7 2 13 -2
11 -9 -3 -27 1 -35 21 -36 11 -1 18 2 15 8 -4 5 -1 9 4 9 6 0 11 -7 11 -16 0
-9 6 -14 13 -11 6 2 12 9 12 15 0 19 15 26 16 6 0 -10 3 -14 5 -7 3 7 12 9 20
6 20 -8 17 11 -6 32 -11 10 -17 22 -14 27 4 6 10 6 17 -1 16 -16 27 -14 27 5
0 8 -4 13 -9 9 -5 -3 -13 0 -17 6 -3 6 -1 15 6 19 18 11 3 30 -23 30 -20 1
-20 2 -4 11 9 6 15 14 12 20 -8 13 -25 11 -25 -2z"/>
<path d="M7216 6288 c3 -5 10 -6 15 -3 13 9 11 12 -6 12 -8 0 -12 -4 -9 -9z"/>
<path d="M7265 6270 c-4 -12 -5 -24 -2 -27 3 -2 8 5 12 17 4 12 5 24 2 27 -3
2 -8 -5 -12 -17z"/>
<path d="M7570 6273 c0 -6 8 -17 18 -24 16 -13 16 -13 2 6 -8 11 -16 22 -17
24 -2 2 -3 0 -3 -6z"/>
<path d="M7299 6258 c-1 -2 -3 -16 -5 -31 -2 -19 1 -27 9 -24 7 3 10 11 8 18
-2 8 -4 20 -4 27 0 11 -5 16 -8 10z"/>
<path d="M7237 6236 c-3 -8 -2 -18 3 -21 13 -8 20 9 11 24 -6 10 -10 9 -14 -3z"/>
<path d="M1817 6199 c7 -7 15 -10 18 -7 3 3 -2 9 -12 12 -14 6 -15 5 -6 -5z"/>
<path d="M1825 6161 c-6 -11 13 -26 22 -17 4 3 1 6 -6 6 -7 0 -9 5 -6 10 3 6
4 10 1 10 -3 0 -7 -4 -11 -9z"/>
<path d="M1988 6133 c7 -3 16 -2 19 1 4 3 -2 6 -13 5 -11 0 -14 -3 -6 -6z"/>
<path d="M1955 5965 c-16 -7 -23 -14 -14 -14 8 -1 24 6 35 14 24 18 18 18 -21
0z"/>
<path d="M5678 5563 c6 -2 18 -2 25 0 6 3 1 5 -13 5 -14 0 -19 -2 -12 -5z"/>
<path d="M7546 1849 c-36 -29 -34 -49 7 -50 118 -3 207 14 207 40 0 17 -14 20
-103 25 -75 5 -89 3 -111 -15z"/>
<path d="M7522 1761 c-48 -19 -112 -59 -112 -70 0 -4 9 -20 20 -34 11 -14 20
-30 20 -36 0 -28 75 -78 108 -72 6 1 12 -5 12 -14 0 -13 7 -15 38 -10 56 10
61 12 57 32 -1 10 4 25 12 34 7 9 13 20 12 25 -4 18 14 69 31 89 26 29 10 62
-32 69 -50 9 -126 3 -166 -13z m135 -217 c-3 -3 -12 -4 -19 -1 -8 3 -5 6 6 6
11 1 17 -2 13 -5z"/>
<path d="M7605 1510 c-3 -5 -2 -10 4 -10 5 0 13 5 16 10 3 6 2 10 -4 10 -5 0
-13 -4 -16 -10z"/>
<path d="M6590 1145 c0 -14 0 -28 1 -31 0 -4 -4 -10 -11 -14 -13 -8 -16 -38
-5 -62 5 -14 2 -18 -13 -18 -26 0 -37 -46 -12 -53 13 -3 16 0 13 14 -3 11 0
19 6 19 6 0 11 -17 12 -37 0 -31 2 -34 9 -18 5 11 9 14 9 8 2 -27 21 -11 21
17 0 17 5 30 10 30 6 0 8 10 5 23 -2 12 -7 38 -11 57 -13 77 -17 90 -25 90 -5
0 -9 -11 -9 -25z"/>
<path d="M6550 1040 c0 -5 5 -10 11 -10 5 0 7 5 4 10 -3 6 -8 10 -11 10 -2 0
-4 -4 -4 -10z"/>
<path d="M6526 923 c3 -16 7 -33 9 -40 2 -6 -1 -14 -8 -16 -7 -2 -9 -8 -5 -12
15 -16 28 8 28 51 0 33 -4 44 -15 44 -12 0 -14 -7 -9 -27z"/>
<path d="M6576 895 c4 -8 8 -15 10 -15 2 0 4 7 4 15 0 8 -4 15 -10 15 -5 0 -7
-7 -4 -15z"/>
<path d="M8820 879 c0 -5 5 -7 10 -4 6 3 10 8 10 11 0 2 -4 4 -10 4 -5 0 -10
-5 -10 -11z"/>
<path d="M6570 855 c0 -8 5 -15 10 -15 6 0 10 7 10 15 0 8 -4 15 -10 15 -5 0
-10 -7 -10 -15z"/>
<path d="M6559 827 c0 -1 -2 -11 -3 -22 -2 -11 -5 -24 -6 -30 -5 -17 12 -85
20 -80 12 7 19 55 9 61 -5 3 -3 20 5 38 12 29 12 32 -5 33 -11 1 -19 1 -20 0z"/>
<path d="M8727 779 c7 -7 15 -10 18 -7 3 3 -2 9 -12 12 -14 6 -15 5 -6 -5z"/>
<path d="M7388 303 c6 -2 18 -2 25 0 6 3 1 5 -13 5 -14 0 -19 -2 -12 -5z"/>
</g>
</svg>
